<svg xmlns="http://www.w3.org/2000/svg" width="1946.561" height="812" viewBox="0 0 1946.561 812">
  <g id="Group_12892" data-name="Group 12892" transform="translate(0)">
    <path id="path826" d="M-230.566,104.4V574.192c90.957,21.462,172.421,81.018,220.831,161.445C4.15,758.7,15.37,783.282,28.337,806.884s27.93,46.519,47.935,64.461c24.612,22.074,56.059,35.685,88.516,41.49s65.932,4.074,98.337-2.017c64.81-12.182,125.048-41.3,187.4-62.872,89.507-30.975,177.3-46.13,278.914-45.3,101.609-.834,189.406,14.322,278.913,45.3,62.348,21.576,122.587,50.689,187.4,62.872,32.4,6.091,65.881,7.822,98.337,2.017s63.9-19.416,88.516-41.49c20.005-17.943,34.967-40.86,47.935-64.462s24.187-48.18,38.072-71.247c48.41-80.427,129.874-139.983,220.831-161.445V104.4h-1920Z" transform="translate(230.566 -104.397)" fill="#24367e"/>
    <g id="Polygon_40" data-name="Polygon 40" transform="translate(1252.354 601.283) rotate(165)" fill="none">
      <path d="M89.79,0l89.79,142.664H0Z" stroke="none"/>
      <path d="M 89.79029846191406 2.816055297851563 L 2.7164306640625 141.1644744873047 L 176.8641357421875 141.1644744873047 L 89.79029846191406 2.816055297851563 M 89.79029846191406 0 L 179.5805816650391 142.6644744873047 L -1.52587890625e-05 142.6644744873047 L 89.79029846191406 0 Z" stroke="none" fill="#354a9e"/>
    </g>
    <path id="Polygon_36" data-name="Polygon 36" d="M142.542,0,285.084,241H0Z" transform="matrix(0.017, -1, 1, 0.017, 1700.625, 412.214)" fill="#354a9e" opacity="0.2"/>
    <path id="Polygon_8" data-name="Polygon 8" d="M16.97,0,33.94,28.718H0Z" transform="translate(1637.3 485.365) rotate(90)" fill="#354a9e" opacity="0.5"/>
    <g id="Polygon_36-2" data-name="Polygon 36" transform="translate(307.866 413.517) rotate(150)" fill="none">
      <path d="M81.042,0l81.042,137H0Z" stroke="none"/>
      <path d="M 81.0418701171875 2.946136474609375 L 2.630142211914063 135.4974060058594 L 159.4535980224609 135.4974060058594 L 81.0418701171875 2.946136474609375 M 81.0418701171875 0 L 162.083740234375 136.9974060058594 L 0 136.9974060058594 L 81.0418701171875 0 Z" stroke="none" fill="#2c408e"/>
    </g>
    <path id="Polygon_41" data-name="Polygon 41" d="M9.47,0l9.47,15.718H0Z" transform="translate(486.006 470.49) rotate(-22)" fill="#2c408e"/>
  </g>
</svg>
