<svg xmlns="http://www.w3.org/2000/svg" width="500.994" height="439.026" viewBox="0 0 500.994 439.026">
  <g id="Group_12894" data-name="Group 12894" transform="translate(-1177.52 -4051.485)">
    <path id="path834" d="M320.637,70.009c32.322,12.362,67.261,2.85,100.316,6.442s64.222,20.29,63.039,54.841-34.716,86.961-32.8,129.858,39.28,76.286,46.945,106.083-8.381,67.834-46.945,70.581-99.642-29.8-155.689-28.106-113.055,25.782-162.4,28.106S42.087,420.7,25.3,386.615,21.8,317.876,17,273.287-10.606,173.873,5.919,144.5s67.307-47.969,95.77-69.574S136.3,28.712,153.782,13.92s46.308-19.764,75.57-5.134,58.962,48.862,91.284,61.224Z" transform="translate(1178 4052)" fill="none" stroke="#e8eaf0" stroke-width="1"/>
    <path id="path834-2" data-name="path834" d="M179.013,70.009C146.691,82.37,111.752,72.858,78.7,76.45S14.475,96.74,15.658,131.291s34.716,86.961,32.8,129.858S9.178,337.435,1.513,367.232s8.381,67.834,46.945,70.581,99.642-29.8,155.689-28.106,113.055,25.782,162.4,28.106,91.019-17.118,107.81-51.2,3.5-68.739,8.292-113.328S510.256,173.873,493.73,144.5s-67.307-47.969-95.77-69.574S363.352,28.712,345.867,13.92,299.56-5.844,270.3,8.785s-58.962,48.862-91.284,61.224Z" transform="translate(1178.351 4052)" fill="#e8eaf0"/>
  </g>
</svg>
