<svg xmlns="http://www.w3.org/2000/svg" width="1921.001" height="656.061" viewBox="0 0 1921.001 656.061">
  <path id="Subtraction_2" data-name="Subtraction 2" d="M-3979,3750.617V3193.5c16.593-10.2,30-19.671,38.327-25.82a292.432,292.432,0,0,1,53.809-31.7,236.417,236.417,0,0,1,60.96-18.273,230.182,230.182,0,0,1,34.614-2.565,280.226,280.226,0,0,1,54.982,5.7,357.814,357.814,0,0,1,52.841,15.1c10.041,3.7,20.088,7.815,30.716,12.593,9.468,4.257,19.181,8.943,29.7,14.325,19.553,10.008,38.9,20.927,57.607,31.486l.945.533c2.318,1.308,4.715,2.661,7.071,3.987,19.47,10.967,40.3,22.562,62.063,33.16,23.559,11.477,45.085,20.212,65.807,26.7a329.177,329.177,0,0,0,44.1,10.607,277.352,277.352,0,0,0,45.438,3.887,221.159,221.159,0,0,0,53.859-6.4c21.846-5.495,43.536-14.832,66.31-28.547,21.542-12.971,41.4-28.279,57.975-41.542,4.3-3.439,8.927-7.177,12.306-9.907l.252-.2.019-.015c15.99-12.914,32.525-26.268,49.731-38.292,9.266-6.474,17.957-12.039,26.569-17.011a267.51,267.51,0,0,1,28.508-14.366,269.136,269.136,0,0,1,57-17.024,330.159,330.159,0,0,1,60.046-5.367c2.394,0,4.839.025,7.267.074,10.4.212,21.113.877,31.838,1.977,10.27,1.053,20.866,2.54,31.5,4.417,10.135,1.79,20.576,3.987,31.032,6.53,9.934,2.414,20.178,5.212,30.448,8.316,12.395,3.745,24.867,7.921,38.13,12.765,11.8,4.309,23.987,9.062,37.255,14.531,24.606,10.145,49.226,21.257,73.035,32l.031.014.01,0c26.571,11.993,54.047,24.394,81.668,35.526,20,8.059,39.748,15.275,58.7,21.449,20.58,6.7,40.981,12.431,60.637,17.021a606.406,606.406,0,0,0,62.119,11.219,509.959,509.959,0,0,0,63.149,4.044c6.606,0,13.252-.141,19.755-.418a421.579,421.579,0,0,0,68.023-8.381,357.662,357.662,0,0,0,64.762-19.912,297.888,297.888,0,0,0,58.076-32.14,242.577,242.577,0,0,0,46.994-43.571c1.646-2.014,3.336-4.16,5.024-6.376v368.621c-27.556-22.124-57.185-45.614-87.153-67.5-19.365-14.144-37.4-26.575-55.131-38-19.913-12.833-38.955-24.094-58.216-34.427-68.889-36.958-137.731-59.657-204.614-67.468a445.364,445.364,0,0,0-51.467-3.01,408.165,408.165,0,0,0-84.229,8.578,336.065,336.065,0,0,0-78.75,26.8c-7.418,3.647-14.887,7.7-22.2,12.035-6.981,4.143-14.04,8.681-20.98,13.486a444.194,444.194,0,0,0-38.9,30.454c-11.225,9.768-22.944,20.774-35.826,33.646-11.812,11.8-23.248,23.812-33.948,35.1l-1.364,1.439-.008.008c-21.8,23-44.348,46.785-68.556,68.4a468.194,468.194,0,0,1-37.94,30.7c-6.773,4.887-13.645,9.515-20.427,13.755-7.128,4.455-14.4,8.634-21.608,12.422-8.15,4.281-16.717,8.32-25.462,12-8.487,3.574-17.386,6.913-26.449,9.924a430.972,430.972,0,0,1-55.262,14.205,552,552,0,0,1-57.427,7.659c-18.5,1.521-38.146,2.293-58.405,2.293-16.875,0-34.719-.535-53.038-1.59-38.907-2.238-78.264-6.463-116.326-10.549-27.26-2.926-55.447-5.952-83.267-8.224-31.16-2.545-58.5-3.848-83.589-3.98-1.353-.007-2.731-.011-4.094-.011-19.347,0-39.03.739-58.5,2.2-19.3,1.445-38.855,3.631-58.11,6.5-19.136,2.848-38.432,6.435-57.349,10.659-18.836,4.206-37.751,9.146-56.22,14.683a797.518,797.518,0,0,0-107.571,40.876c-17.229,8.029-34.257,16.749-50.613,25.918-16.429,9.208-32.579,19.094-48,29.384Z" transform="translate(3979 -3094.556)" fill="#fafbfc"/>
</svg>
