<svg xmlns="http://www.w3.org/2000/svg" width="55.4" height="55.4" viewBox="0 0 55.4 55.4">
  <path id="_70" data-name="70" d="M266.8,49.766a2.623,2.623,0,0,0-1.578.619,17.084,17.084,0,0,0-1.37,1.079c-.449.38-.885.755-1.247,1.028a6.891,6.891,0,0,1-.652.407,7.024,7.024,0,0,1-.758-.127c-.439-.114-.985-.292-1.545-.471a17.089,17.089,0,0,0-1.679-.472,2.318,2.318,0,0,0-2.915,1.207,17.085,17.085,0,0,0-.853,1.521c-.269.522-.528,1.036-.758,1.427a6.946,6.946,0,0,1-.446.625,6.938,6.938,0,0,1-.75.173c-.45.063-1.023.107-1.609.156a17.106,17.106,0,0,0-1.732.206,2.317,2.317,0,0,0-2.231,2.231,17.1,17.1,0,0,0-.206,1.732c-.049.586-.092,1.159-.156,1.609a6.755,6.755,0,0,1-.173.748,6.9,6.9,0,0,1-.625.446c-.391.23-.9.491-1.427.76a17.083,17.083,0,0,0-1.521.853,2.318,2.318,0,0,0-1.208,2.914,17.126,17.126,0,0,0,.473,1.68c.179.56.357,1.106.471,1.545a7.045,7.045,0,0,1,.127.758,6.952,6.952,0,0,1-.407.652c-.273.363-.647.8-1.027,1.247a17.092,17.092,0,0,0-1.08,1.37,2.318,2.318,0,0,0,0,3.154A17.113,17.113,0,0,0,241,80.214c.38.449.753.885,1.027,1.247a6.943,6.943,0,0,1,.407.652,7.02,7.02,0,0,1-.127.757c-.114.439-.292.985-.471,1.545a17.117,17.117,0,0,0-.473,1.68,2.316,2.316,0,0,0,1.208,2.914,17.1,17.1,0,0,0,1.521.855c.522.269,1.036.528,1.427.758a6.89,6.89,0,0,1,.625.446,6.882,6.882,0,0,1,.173.749c.063.45.107,1.022.156,1.607a17.041,17.041,0,0,0,.206,1.733,2.32,2.32,0,0,0,2.231,2.231,17.1,17.1,0,0,0,1.732.206c.586.049,1.159.092,1.609.156a7.221,7.221,0,0,1,.75.172,7.082,7.082,0,0,1,.446.627c.23.391.489.9.758,1.427a17.087,17.087,0,0,0,.853,1.521,2.322,2.322,0,0,0,2.915,1.208,17.09,17.09,0,0,0,1.679-.473c.56-.179,1.106-.359,1.545-.473a7.039,7.039,0,0,1,.758-.127,7.244,7.244,0,0,1,.652.409c.363.273.8.647,1.247,1.026a17.083,17.083,0,0,0,1.37,1.078,2.315,2.315,0,0,0,3.156,0,17.08,17.08,0,0,0,1.37-1.078c.449-.38.885-.753,1.247-1.026a7.312,7.312,0,0,1,.652-.409,7.024,7.024,0,0,1,.758.127c.439.114.985.294,1.545.473a17.092,17.092,0,0,0,1.679.473,2.322,2.322,0,0,0,2.915-1.208,17.08,17.08,0,0,0,.853-1.521c.269-.522.528-1.036.758-1.427a7.2,7.2,0,0,1,.446-.627,7.276,7.276,0,0,1,.75-.172c.449-.063,1.023-.107,1.609-.156a17.111,17.111,0,0,0,1.732-.206,2.32,2.32,0,0,0,2.231-2.231,17.128,17.128,0,0,0,.206-1.733c.049-.586.092-1.158.156-1.607a6.857,6.857,0,0,1,.173-.749,6.888,6.888,0,0,1,.625-.446c.391-.23.9-.489,1.427-.758a17.109,17.109,0,0,0,1.521-.855,2.316,2.316,0,0,0,1.208-2.914,17.108,17.108,0,0,0-.473-1.68c-.179-.56-.357-1.106-.471-1.545a7.016,7.016,0,0,1-.127-.757,6.931,6.931,0,0,1,.407-.652c.273-.363.647-.8,1.026-1.247a17.126,17.126,0,0,0,1.08-1.372,2.318,2.318,0,0,0,0-3.154,17.107,17.107,0,0,0-1.08-1.37c-.38-.449-.753-.885-1.026-1.247a6.91,6.91,0,0,1-.407-.652,6.994,6.994,0,0,1,.127-.758c.114-.439.292-.985.471-1.545a17.109,17.109,0,0,0,.473-1.68,2.318,2.318,0,0,0-1.208-2.914,17.1,17.1,0,0,0-1.521-.853c-.523-.269-1.036-.53-1.427-.76a6.915,6.915,0,0,1-.625-.446,6.813,6.813,0,0,1-.173-.748c-.063-.45-.107-1.023-.156-1.609a17.01,17.01,0,0,0-.206-1.732,2.317,2.317,0,0,0-2.231-2.231,17.1,17.1,0,0,0-1.732-.206c-.586-.049-1.159-.092-1.609-.156a6.913,6.913,0,0,1-.75-.173,6.9,6.9,0,0,1-.446-.625c-.23-.391-.489-.9-.758-1.427a17.077,17.077,0,0,0-.853-1.521,2.318,2.318,0,0,0-2.915-1.207,17.092,17.092,0,0,0-1.679.472c-.56.179-1.106.357-1.545.471a7.039,7.039,0,0,1-.758.127,6.893,6.893,0,0,1-.652-.407c-.362-.273-.8-.648-1.247-1.028a17.093,17.093,0,0,0-1.37-1.079A2.622,2.622,0,0,0,266.8,49.766Zm0,1.906a2.863,2.863,0,0,1,.517.27c.346.235.775.588,1.215.96s.889.762,1.329,1.093a2.8,2.8,0,0,0,3.016.6c.533-.138,1.1-.326,1.647-.5s1.079-.337,1.489-.422a2.9,2.9,0,0,1,.581-.053,2.885,2.885,0,0,1,.374.448c.229.35.492.839.756,1.351s.529,1.046.809,1.52a2.807,2.807,0,0,0,2.557,1.708c.545.077,1.14.12,1.714.167s1.127.1,1.538.179a2.882,2.882,0,0,1,.557.174,2.93,2.93,0,0,1,.174.558c.078.411.133.964.181,1.538s.091,1.168.167,1.713a2.8,2.8,0,0,0,1.708,2.557c.474.279,1.007.546,1.518.81s1,.525,1.353.754a2.892,2.892,0,0,1,.448.374,2.879,2.879,0,0,1-.053.581c-.085.41-.247.942-.422,1.49s-.364,1.114-.5,1.647a2.8,2.8,0,0,0,.6,3.014c.331.44.723.891,1.095,1.33s.724.869.96,1.215a2.867,2.867,0,0,1,.27.517,2.848,2.848,0,0,1-.27.517c-.235.346-.588.774-.96,1.213s-.763.891-1.095,1.33a2.806,2.806,0,0,0-.6,3.016c.138.533.327,1.1.5,1.647s.337,1.079.422,1.489a2.916,2.916,0,0,1,.053.582,2.9,2.9,0,0,1-.448.374c-.35.229-.841.49-1.353.754s-1.044.531-1.518.811a2.8,2.8,0,0,0-1.708,2.557c-.077.545-.12,1.14-.167,1.714s-.1,1.127-.181,1.538a2.9,2.9,0,0,1-.174.557,2.894,2.894,0,0,1-.557.174c-.411.078-.964.133-1.538.181s-1.169.09-1.714.166a2.8,2.8,0,0,0-2.557,1.708c-.279.474-.545,1.008-.809,1.52s-.526,1-.756,1.351a2.956,2.956,0,0,1-.375.45,2.9,2.9,0,0,1-.581-.053c-.41-.085-.94-.247-1.489-.422s-1.114-.364-1.647-.5a2.8,2.8,0,0,0-3.016.6c-.44.331-.889.721-1.329,1.093s-.869.724-1.215.96a.628.628,0,0,1-1.034,0c-.346-.235-.775-.588-1.215-.96s-.889-.762-1.329-1.093a2.8,2.8,0,0,0-3.016-.6c-.533.138-1.1.327-1.647.5s-1.079.337-1.489.422a2.907,2.907,0,0,1-.581.053,2.95,2.95,0,0,1-.375-.45c-.229-.35-.492-.839-.756-1.351s-.529-1.045-.809-1.52a2.8,2.8,0,0,0-2.557-1.708c-.545-.077-1.14-.118-1.714-.166s-1.127-.1-1.538-.181a2.894,2.894,0,0,1-.557-.174,2.9,2.9,0,0,1-.174-.557c-.078-.411-.133-.964-.181-1.538s-.091-1.169-.167-1.714A2.8,2.8,0,0,0,246.475,89c-.474-.279-1.007-.547-1.518-.811s-1-.525-1.353-.754a2.9,2.9,0,0,1-.448-.374,2.882,2.882,0,0,1,.053-.581c.085-.41.247-.941.422-1.489s.364-1.114.5-1.647a2.806,2.806,0,0,0-.6-3.016c-.331-.44-.723-.891-1.095-1.33s-.724-.867-.96-1.213a2.865,2.865,0,0,1-.27-.517,2.851,2.851,0,0,1,.27-.517c.235-.346.588-.776.96-1.215s.763-.891,1.095-1.33a2.8,2.8,0,0,0,.6-3.014c-.138-.533-.327-1.1-.5-1.647s-.337-1.081-.422-1.49a2.918,2.918,0,0,1-.053-.581,2.881,2.881,0,0,1,.448-.374c.35-.229.841-.49,1.353-.754s1.044-.531,1.518-.81a2.8,2.8,0,0,0,1.708-2.557c.077-.545.12-1.139.167-1.713s.1-1.127.181-1.538a2.933,2.933,0,0,1,.174-.558,2.883,2.883,0,0,1,.557-.174c.411-.078.964-.131,1.538-.179s1.169-.091,1.714-.167a2.807,2.807,0,0,0,2.557-1.708c.279-.474.545-1.008.809-1.52s.526-1,.756-1.351a2.884,2.884,0,0,1,.374-.448,2.9,2.9,0,0,1,.581.053c.409.085.94.247,1.489.422s1.114.363,1.647.5a2.8,2.8,0,0,0,3.016-.6c.44-.331.889-.721,1.329-1.093s.869-.724,1.215-.96a2.867,2.867,0,0,1,.517-.27Zm-7.55,16.979a.942.942,0,1,0,0,1.884h7.681l-4.891,14.082a.942.942,0,1,0,1.779.619L269.147,69.9a.942.942,0,0,0-.889-1.25Zm17.057,0a5.453,5.453,0,0,0-5.444,5.444v6.328a5.445,5.445,0,1,0,10.889,0V74.094a5.454,5.454,0,0,0-5.445-5.444Zm0,1.884a3.532,3.532,0,0,1,3.561,3.56v6.328a3.56,3.56,0,1,1-7.121,0V74.094A3.53,3.53,0,0,1,276.308,70.535Zm-20.293,2.552a.942.942,0,0,0-.927.955v2.282h-2.281a.942.942,0,1,0,0,1.884h2.281v2.28a.942.942,0,1,0,1.884,0v-2.28h2.28a.942.942,0,1,0,0-1.884h-2.28V74.042a.942.942,0,0,0-.957-.955Z" transform="translate(-239.101 -49.566)" fill="#24367e" stroke="#24367e" stroke-width="0.4"/>
</svg>
