<svg xmlns="http://www.w3.org/2000/svg" width="55.4" height="40.4" viewBox="0 0 55.4 40.4">
  <path id="aparat" d="M57.765,209.841a4.606,4.606,0,0,0-3.373,1.4,8.211,8.211,0,0,0-1.72,3.111l-.22.644h-8.23a5.162,5.162,0,0,0-5.146,5.158v24.523a5.163,5.163,0,0,0,5.146,5.159h44.71a5.162,5.162,0,0,0,5.145-5.159V220.158A5.161,5.161,0,0,0,88.932,215H80.7l-.219-.644v0a8.208,8.208,0,0,0-1.719-3.11,4.607,4.607,0,0,0-3.374-1.4Zm0,1.94H75.388a2.464,2.464,0,0,1,1.98.807,6.58,6.58,0,0,1,1.283,2.394l.444,1.3a.967.967,0,0,0,.915.656h8.922a3.187,3.187,0,0,1,3.211,3.219v24.523a3.188,3.188,0,0,1-3.211,3.22H44.222a3.188,3.188,0,0,1-3.211-3.22V220.158a3.187,3.187,0,0,1,3.211-3.219h8.922a.967.967,0,0,0,.915-.656l.442-1.3a6.577,6.577,0,0,1,1.284-2.394,2.462,2.462,0,0,1,1.979-.807Zm8.811,8.98a11.658,11.658,0,1,0,11.628,11.658A11.658,11.658,0,0,0,66.577,220.761Zm13.433,0a.969.969,0,0,0,0,1.939h4a.969.969,0,0,0,0-1.939ZM66.577,222.7a9.72,9.72,0,1,1-9.695,9.72A9.693,9.693,0,0,1,66.577,222.7Z" transform="translate(-38.877 -209.64)" fill="#24367e" stroke="#24367e" stroke-width="0.4"/>
</svg>
