<svg xmlns="http://www.w3.org/2000/svg" width="61" height="51" viewBox="0 0 61 51">
  <path fill="#ffffff" id="path1674" d="M373.83-177.174a2.922,2.922,0,0,0-2.107.894l-16.379,16.916a3.169,3.169,0,0,0,0,4.352l1.761,1.818a2.928,2.928,0,0,0,4.213,0l.02-.021,5.126,5.295-.472.487-.009.008-1.037,1.071-1,1.034a4.334,4.334,0,0,0,0,5.968,4,4,0,0,0,3.125,1.218,4.287,4.287,0,0,0,1.18,3.226,4,4,0,0,0,3.123,1.219,4.287,4.287,0,0,0,1.18,3.225h0a4.006,4.006,0,0,0,4.533.873,4.234,4.234,0,0,0,1.117,2.18,4.01,4.01,0,0,0,5.78,0l1.172-1.21,1.175,1.214a4.01,4.01,0,0,0,5.78,0,4.238,4.238,0,0,0,1.143-2.364,4,4,0,0,0,4.2-1,4.244,4.244,0,0,0,1.151-2.425,4.005,4.005,0,0,0,4.1-1.041,4.237,4.237,0,0,0,1.137-2.323,4.006,4.006,0,0,0,4.273-.979,4.333,4.333,0,0,0,0-5.968l-4.281-4.421,4.921-5.156a2.928,2.928,0,0,0,4.1-.11l1.76-1.819a3.168,3.168,0,0,0,0-4.353l-16.379-16.916a2.923,2.923,0,0,0-2.108-.893,2.92,2.92,0,0,0-2.106.893l-1.761,1.818a3.169,3.169,0,0,0-.13,4.2l-6.217,4.34-6.024-1.893-2.208-2.28.018-.019a3.166,3.166,0,0,0,0-4.351l-1.761-1.818a2.925,2.925,0,0,0-2.107-.9Zm0,2.138a.876.876,0,0,1,.631.281l1.761,1.819a.917.917,0,0,1,0,1.3l-.637.658a1.064,1.064,0,0,0-.238.246L360.72-155.622a1.061,1.061,0,0,0-.237.244l-.639.66a.848.848,0,0,1-1.26,0l-1.761-1.818a.916.916,0,0,1,0-1.3h0l16.38-16.916a.877.877,0,0,1,.631-.281Zm22.292,0h0a.879.879,0,0,1,.632.281l16.379,16.916a.917.917,0,0,1,0,1.3l-1.761,1.819a.85.85,0,0,1-1.262,0l-15.5-16.006a1.061,1.061,0,0,0-.241-.249l-.64-.661a.919.919,0,0,1,0-1.305l1.76-1.817a.877.877,0,0,1,.631-.281Zm-2.5,6.337,13.649,14.1-4.914,5.151-11.073-11.436a1.033,1.033,0,0,0-1-.489,1.03,1.03,0,0,0-.631.3l-5.721,4.036a3.291,3.291,0,0,1-1.679.643,1.56,1.56,0,0,1-1.3-.515,2.523,2.523,0,0,1-.663-1.587,1.3,1.3,0,0,1,.514-1.205l5.867-4.139.021-.016Zm-17.42.133L378.6-166.1a1.037,1.037,0,0,0,.435.268l4.669,1.468-4.071,2.873a3.573,3.573,0,0,0-1.423,3.051,4.582,4.582,0,0,0,1.274,3.044,3.756,3.756,0,0,0,2.856,1.146,5.227,5.227,0,0,0,2.774-1.017l5.151-3.635,16.379,16.915a2.085,2.085,0,0,1,0,2.921,1.928,1.928,0,0,1-2.827,0l-10.857-11.211a1.02,1.02,0,0,0-1.454-.031,1.1,1.1,0,0,0-.073,1.5h0q.024.028.051.054l9.749,10.068a2.084,2.084,0,0,1,0,2.92,1.929,1.929,0,0,1-2.827,0l-.933-.963-.014-.017-8.8-9.089a1.021,1.021,0,0,0-1.455-.032,1.1,1.1,0,0,0-.072,1.5h0q.025.028.051.054l8.8,9.088a2.084,2.084,0,0,1,0,2.92,1.928,1.928,0,0,1-2.827,0l-1.042-1.076-5.593-5.774a1.023,1.023,0,0,0-1.02-.305,1.061,1.061,0,0,0-.751.775,1.1,1.1,0,0,0,.3,1.053l5.591,5.775a2.084,2.084,0,0,1,0,2.92,1.928,1.928,0,0,1-2.827,0l-5.815-6.006a4.33,4.33,0,0,0-1.009-4.232,4.01,4.01,0,0,0-2.891-1.229c-.078,0-.155.007-.233.012a4.288,4.288,0,0,0-1.18-3.227,4.006,4.006,0,0,0-2.889-1.229c-.078,0-.155.007-.233.012a4.288,4.288,0,0,0-1.18-3.227,4.006,4.006,0,0,0-2.889-1.229,4.018,4.018,0,0,0-1.208.188l-5.463-5.643Zm-6.72,21.419a1.963,1.963,0,0,1,1.414.617,2.084,2.084,0,0,1,0,2.92l-.608.627,0,0-1.037,1.071-1,1.034a1.928,1.928,0,0,1-2.827,0,2.085,2.085,0,0,1,0-2.92l2.039-2.105.014-.016.6-.615a1.963,1.963,0,0,1,1.414-.617Zm4.3,4.444a1.962,1.962,0,0,1,1.414.617,2.084,2.084,0,0,1,0,2.92l-.6.62-.01.01-1.037,1.071-1,1.034a1.928,1.928,0,0,1-2.827,0,2.084,2.084,0,0,1,0-2.92l1-1.034,1.648-1.7a1.962,1.962,0,0,1,1.413-.617Zm4.3,4.444a1.963,1.963,0,0,1,1.414.617,2.084,2.084,0,0,1,0,2.92l-.607.627,0,0h0l-.253.261-.44.454,0,0-.342.353-1,1.034a1.928,1.928,0,0,1-2.827,0,2.084,2.084,0,0,1,0-2.92l2.039-2.105.012-.013.6-.617a1.963,1.963,0,0,1,1.414-.617Zm2.759,5.2,2.827,2.92-1.173,1.211a1.929,1.929,0,0,1-2.827,0,2.084,2.084,0,0,1-.006-2.914l.7-.722Z" transform="translate(-354.478 177.175)"/>
</svg>
