<svg xmlns="http://www.w3.org/2000/svg" width="45.527" height="55.512" viewBox="0 0 45.527 55.512">
  <path id="gwarancja" d="M154.807,165.176h-.1a85.021,85.021,0,0,0-21.531,2.719.975.975,0,0,0-.851,1.159V190.98a25.731,25.731,0,0,0,6.739,17.364c4.076,4.673,9.544,8.389,15.266,11.706a.937.937,0,0,0,.941,0c5.722-3.317,11.191-7.032,15.267-11.706a25.731,25.731,0,0,0,6.739-17.364v-21.9a.944.944,0,0,0-.674-1.139l-.029-.008a84.894,84.894,0,0,0-21.73-2.76h-.034Zm-.019,1.887h.005a83.968,83.968,0,0,1,20.6,2.513v21.4a23.673,23.673,0,0,1-6.273,16.12c-3.738,4.286-8.863,7.813-14.322,11.01-5.458-3.2-10.583-6.723-14.321-11.01a23.675,23.675,0,0,1-6.274-16.12v-21.4a83.942,83.942,0,0,1,20.574-2.513h.013Zm12.965,11.1a.939.939,0,0,0-.646.287l-17.014,17.08-7.6-7.634a.942.942,0,1,0-1.331,1.335l8.271,8.3a.938.938,0,0,0,1.329,0l17.68-17.75a.944.944,0,0,0-.685-1.621Z" transform="translate(-132.045 -164.926)" fill="#24367e" stroke="#24367e" stroke-width="0.5"/>
</svg>
