<svg xmlns="http://www.w3.org/2000/svg" width="47.73" height="55.401" viewBox="0 0 47.73 55.401">
  <path id="jakosc_2" data-name="jakosc 2" d="M384.52,49.97a19.14,19.14,0,0,0-19.247,19,18.8,18.8,0,0,0,5.081,12.855c-.075.134-.149.265-.247.435-.278.482-.664,1.145-1.119,1.927-.91,1.565-2.1,3.607-3.285,5.634C363.336,93.877,361,97.87,361,97.87a.936.936,0,0,0,.027.989.963.963,0,0,0,.9.425l6.38-.666,2.607,5.789a.964.964,0,0,0,1.7.1l9.889-16.631a19.6,19.6,0,0,0,4.025,0l9.889,16.631a.964.964,0,0,0,1.7-.1l2.606-5.789,6.381.666a.963.963,0,0,0,.9-.425.937.937,0,0,0,.027-.989s-2.338-3.993-4.705-8.047c-1.184-2.027-2.376-4.069-3.286-5.634-.455-.783-.839-1.446-1.117-1.927-.152-.263-.163-.284-.248-.434a18.8,18.8,0,0,0,5.081-12.856,19.139,19.139,0,0,0-19.246-19Zm0,1.893a17.111,17.111,0,1,1-17.33,17.109,17.206,17.206,0,0,1,17.33-17.109Zm8.61,10.356a.964.964,0,0,0-.659.286l-11.08,10.939-4.823-4.76a.967.967,0,0,0-.935-.264.953.953,0,0,0-.688.679.939.939,0,0,0,.267.923l5.5,5.43a.967.967,0,0,0,1.355,0l11.758-11.609a.938.938,0,0,0,.213-1.047.959.959,0,0,0-.91-.577ZM371.772,83.2a19.29,19.29,0,0,0,8.7,4.352l-1.829,3.077a22.841,22.841,0,0,1-8.6-4.452l.609-1.045C371.107,84.35,371.492,83.686,371.772,83.2Zm25.5,0c.28.485.665,1.149,1.121,1.933L399,86.178a22.843,22.843,0,0,1-8.6,4.452l-1.829-3.077A19.289,19.289,0,0,0,397.268,83.2Zm-28.2,4.642a24.766,24.766,0,0,0,8.571,4.473l-5.732,9.64-2.132-4.735a.961.961,0,0,0-.977-.556l-5.2.543c.674-1.152,1.872-3.194,3.766-6.438.615-1.053,1.128-1.935,1.707-2.927Zm30.9,0c.578.992,1.092,1.874,1.706,2.927,1.895,3.244,3.092,5.286,3.766,6.438l-5.2-.543a.961.961,0,0,0-.977.556l-2.132,4.735-5.732-9.64a24.765,24.765,0,0,0,8.571-4.473Z" transform="translate(-360.655 -49.77)" fill="#24367e" stroke="#24367e" stroke-width="0.4"/>
</svg>
