<svg xmlns="http://www.w3.org/2000/svg" width="47.43" height="55.4" viewBox="0 0 47.43 55.4">
  <path id="jakosc" d="M499.337-65.219a19.078,19.078,0,0,0-19.123,19,18.865,18.865,0,0,0,5.048,12.854c-.075.134-.148.266-.245.436-.276.482-.658,1.145-1.11,1.927-.9,1.565-2.089,3.607-3.265,5.634-2.352,4.053-4.675,8.045-4.675,8.045a.941.941,0,0,0,.026.99.955.955,0,0,0,.9.425l6.339-.665,2.59,5.789a.953.953,0,0,0,.817.559.954.954,0,0,0,.874-.466l9.827-16.63a19.4,19.4,0,0,0,2,.1,19.411,19.411,0,0,0,2-.1l9.827,16.63a.954.954,0,0,0,.874.466.953.953,0,0,0,.817-.559l2.59-5.789,6.339.665a.955.955,0,0,0,.9-.426.942.942,0,0,0,.026-.99s-2.323-3.992-4.675-8.045c-1.176-2.027-2.36-4.069-3.264-5.634-.452-.783-.836-1.446-1.112-1.927-.151-.263-.162-.284-.246-.435a18.864,18.864,0,0,0,5.049-12.855,19.078,19.078,0,0,0-19.124-19Zm0,1.893a17.151,17.151,0,0,1,17.22,17.11,17.151,17.151,0,0,1-17.22,17.11,17.151,17.151,0,0,1-17.219-17.11A17.151,17.151,0,0,1,499.337-63.326Zm.006,4.873q-.048,0-.095,0a.953.953,0,0,0-.7.428l-3.715,5.713-6.62,1.733a.95.95,0,0,0-.662.622.942.942,0,0,0,.167.89l4.321,5.276-.387,6.792a.944.944,0,0,0,.39.819.958.958,0,0,0,.9.118l6.385-2.454,6.38,2.464a.958.958,0,0,0,.9-.116A.945.945,0,0,0,507-36.98l-.375-6.791,4.33-5.268a.942.942,0,0,0,.169-.891.95.95,0,0,0-.662-.623L503.849-52.3l-3.7-5.721A.954.954,0,0,0,499.343-58.453Zm0,2.693,3.1,4.8a.952.952,0,0,0,.557.4L508.55-49.1l-3.629,4.416a.942.942,0,0,0-.214.651l.314,5.692-5.348-2.066a.958.958,0,0,0-.689,0l-5.351,2.057.325-5.693a.942.942,0,0,0-.213-.651l-3.622-4.422,5.548-1.452a.952.952,0,0,0,.558-.4ZM486.671-31.988a19.121,19.121,0,0,0,8.647,4.352L493.5-24.558a22.645,22.645,0,0,1-8.548-4.451l.606-1.046c.452-.783.836-1.447,1.114-1.932Zm25.333,0c.278.485.661,1.149,1.114,1.932l.606,1.046a22.645,22.645,0,0,1-8.548,4.452l-1.818-3.078A19.121,19.121,0,0,0,512-31.988Zm-28.016,4.642a24.555,24.555,0,0,0,8.516,4.474l-5.7,9.641-2.118-4.735a.954.954,0,0,0-.971-.557l-5.168.542c.67-1.152,1.858-3.195,3.741-6.438.611-1.053,1.121-1.935,1.7-2.927Zm30.7,0c.575.992,1.084,1.874,1.7,2.926,1.882,3.243,3.07,5.285,3.74,6.438l-5.169-.542a.954.954,0,0,0-.971.557l-2.118,4.735-5.7-9.64A24.555,24.555,0,0,0,514.688-27.345Z" transform="translate(-475.622 65.419)" fill="#24367e" stroke="#24367e" stroke-width="0.4"/>
</svg>
