<svg xmlns="http://www.w3.org/2000/svg" width="52.2" height="57.2" viewBox="0 0 52.2 57.2">
  <path id="rect825" d="M49.983-5.653a4.236,4.236,0,0,0-4.23,4.218V4.85h-.571a3.452,3.452,0,0,0-3.442,3.432V10.2a3.45,3.45,0,0,0,3.442,3.43h.571V32.059h-.571a3.452,3.452,0,0,0-3.442,3.432v1.922a3.45,3.45,0,0,0,3.442,3.43h.571v6.285a4.236,4.236,0,0,0,4.23,4.218H89.511a4.236,4.236,0,0,0,4.23-4.218V-1.435a4.236,4.236,0,0,0-4.23-4.218Zm0,1.982H89.511a2.212,2.212,0,0,1,2.242,2.236V47.129a2.212,2.212,0,0,1-2.242,2.236H49.983a2.212,2.212,0,0,1-2.242-2.236V-1.435A2.212,2.212,0,0,1,49.983-3.671ZM55.7,4.852a.991.991,0,1,0,0,1.982q14.044,0,28.085,0a.991.991,0,1,0,0-1.982H55.7ZM45.183,6.832h.571v4.82h-.571A1.426,1.426,0,0,1,43.729,10.2V8.282a1.428,1.428,0,0,1,1.454-1.45ZM55.7,11.654a.991.991,0,1,0,0,1.982q14.044,0,28.085,0a.991.991,0,1,0,0-1.982H55.7Zm0,6.8a.991.991,0,1,0,0,1.982q5.372,0,10.74,0a.991.991,0,1,0,0-1.982H55.706Zm17.344,0a.991.991,0,1,0,0,1.982q5.372,0,10.74,0a.991.991,0,1,0,0-1.982H73.048ZM55.7,25.259a.991.991,0,1,0,0,1.982q5.372,0,10.74,0a.991.991,0,1,0,0-1.982H55.706Zm17.344,0a.991.991,0,1,0,0,1.982q5.372,0,10.74,0a.991.991,0,1,0,0-1.982H73.048ZM55.7,32.061a.991.991,0,1,0,0,1.982q5.372,0,10.74,0a.991.991,0,1,0,0-1.982H55.706Zm17.344,0a.991.991,0,1,0,0,1.982q5.372,0,10.74,0a.991.991,0,1,0,0-1.982H73.048Zm-27.865,1.98h.571v4.82h-.571a1.426,1.426,0,0,1-1.454-1.448V35.491A1.428,1.428,0,0,1,45.183,34.041ZM55.7,38.863a.991.991,0,1,0,0,1.982q5.372,0,10.74,0a.991.991,0,1,0,0-1.982H55.706Zm17.344,0a.991.991,0,1,0,0,1.982q5.372,0,10.74,0a.991.991,0,1,0,0-1.982H73.048Z" transform="translate(-41.641 5.753)" fill="#ffffff" stroke="#24367e" stroke-width="0.2"/>
</svg>
