<svg xmlns="http://www.w3.org/2000/svg" width="55.42" height="55.421" viewBox="0 0 55.42 55.421">
  <path id="kolor" d="M611.165,49.228a27.5,27.5,0,1,0,27.5,27.5,1.509,1.509,0,0,0-1.3-1.029h-5.991a1.193,1.193,0,0,0-1.13,1.029,19.077,19.077,0,1,1-19.077-19.076,1.317,1.317,0,0,0,.936-1.224V50.437a.985.985,0,0,0-.936-1.208Zm22.293.221a4.972,4.972,0,0,0-3.528,1.457l-2.1,2.1-4.068,4.068L621.6,54.914a.936.936,0,1,0-1.323,1.323l2.162,2.162-4.945,4.946-2.1,2.1-3.516,3.514-2.1,2.1a.936.936,0,0,0-.125.156l0,0a.92.92,0,0,0-.063.116L604.7,82.163a.936.936,0,0,0,1.257,1.229L616.572,78.3a.936.936,0,0,0,.257-.183l2.1-2.1,3.516-3.515,7.047-7.048,2.161,2.162a.936.936,0,1,0,1.323-1.323l-2.162-2.162,4.068-4.068,2.1-2.1a4.986,4.986,0,0,0-3.53-8.514Zm-23.229,1.669V55.8a20.947,20.947,0,0,0-13.151,5.422l-3.312-3.311a25.614,25.614,0,0,1,16.462-6.8Zm23.229.187a3.13,3.13,0,0,1,2.206,5.335l-2.1,2.1-4.069,4.068-4.41-4.41,4.067-4.068,2.1-2.1A3.108,3.108,0,0,1,633.458,51.305ZM592.44,59.234l3.312,3.312A20.9,20.9,0,0,0,590.245,75.7H585.56a25.591,25.591,0,0,1,6.88-16.465Zm31.321.488,4.41,4.41-6.658,6.657h-8.819l.5-.5,3.516-3.516,2.1-2.1ZM611.039,72.662h8.6L617.609,74.7l-1.989,1.988L607.461,80.6Zm-25.486,4.91h4.684a20.945,20.945,0,0,0,5.426,13.243l-3.313,3.313a25.612,25.612,0,0,1-6.8-16.557Zm46.542,0h4.682a25.612,25.612,0,0,1-6.8,16.555l-3.312-3.312A20.946,20.946,0,0,0,632.095,77.571ZM625.347,92.14l3.313,3.313a25.589,25.589,0,0,1-16.559,6.883V97.652a20.892,20.892,0,0,0,13.246-5.512Zm-28.367,0a20.945,20.945,0,0,0,13.248,5.51v4.683a25.613,25.613,0,0,1-16.559-6.883Z" transform="translate(-583.445 -49.028)" fill="#24367e" stroke="#24367e" stroke-width="0.4"/>
</svg>
