<svg xmlns="http://www.w3.org/2000/svg" width="55.504" height="55.503" viewBox="0 0 55.504 55.503">
  <path id="ksztalt" d="M522.97,49.453h0a.939.939,0,0,0-.109.01h-9.195a.941.941,0,1,0,0,1.88h7.051L513,59.06a.941.941,0,1,0,1.33,1.33l7.717-7.716v7.05a.941.941,0,1,0,1.88,0V50.593a.941.941,0,0,0-.207-.8q-.025-.03-.053-.058h0a.941.941,0,0,0-.7-.279Zm-53.082.011a.941.941,0,0,0-.941.939V84.354a.941.941,0,0,0,.941.941h12.073a12.28,12.28,0,0,0,5.518,7.168q.283.163.573.309a12.305,12.305,0,0,0,8.016.973,14.144,14.144,0,0,0,27.86-3.449h0a14.127,14.127,0,0,0-12.5-14.042c.886-6.077-1.151-11.9-5.9-14.729a.941.941,0,0,0-.129-.092,11.671,11.671,0,0,0-5.56-1.544,13.492,13.492,0,0,0-2.607.192V50.4a.941.941,0,0,0-.941-.939Zm.941,1.88h24.52v9.179c-.453.138-.9.3-1.348.478a21.57,21.57,0,0,0-12.594,21.81c.028.2.063.4.1.6H470.829Zm28.942,10.417a9.8,9.8,0,0,1,4.686,1.3c4.1,2.367,5.96,7.479,5.08,13.1a14.127,14.127,0,0,0-13.893,14.132h0a14.321,14.321,0,0,0,.092,1.6,10.39,10.39,0,0,1-6.837-.8c-.161-.081-.32-.167-.478-.259a10.932,10.932,0,0,1-5.15-8.281,19.7,19.7,0,0,1,11.44-19.81,12.589,12.589,0,0,1,5.061-.982Zm10.015,16.276a12.211,12.211,0,0,1,12.261,12.257h0a12.261,12.261,0,0,1-24.522,0h0a12.211,12.211,0,0,1,12.261-12.257ZM469.874,93.22a.941.941,0,0,0-.926.953v9.291a.941.941,0,0,0,1.12.971h9.143a.941.941,0,1,0,0-1.882h-7.035l7.716-7.714a.941.941,0,1,0-1.332-1.33l-7.73,7.73V94.173a.941.941,0,0,0-.956-.953Z" transform="translate(-468.696 -49.202)" fill="#24367e" stroke="#24367e" stroke-width="0.5"/>
</svg>
