<svg xmlns="http://www.w3.org/2000/svg" width="55.46" height="55.4" viewBox="0 0 55.46 55.4">
  <path id="rect2894" d="M405.921-65.217a.946.946,0,0,0-.621.243L391.749-52.746l-2.682-2.682a.946.946,0,0,0-.683-.278h0a.946.946,0,0,0-.631.253L354.778-24.83a.946.946,0,0,0-.3.676.947.947,0,0,0,.276.686l12.974,12.974a.947.947,0,0,0,.687.277.946.946,0,0,0,.676-.3L399.712-43.5a.947.947,0,0,0-.024-1.313L397-47.492l12.228-13.551a.947.947,0,0,0-.033-1.3L406.6-64.94a.947.947,0,0,0-.683-.277Zm-.019,2.25,1.322,1.323L395.663-48.832,393.09-51.4Zm-17.53,9.521,9.331,9.332-2.469,2.659-9.522-9.521Zm-4.047,3.759,9.62,9.619L381.074-26.206V-46.668Zm-5.144,4.778v20.742l-3.292,3.546L364.881-31.629ZM363.494-30.34,374.6-19.234l-6.229,6.708L356.787-24.111Z" transform="translate(-354.276 65.417)" fill="#43c5ff" stroke="#43c5ff" stroke-width="0.4"/>
</svg>
