<svg xmlns="http://www.w3.org/2000/svg" width="55.4" height="49.4" viewBox="0 0 55.4 49.4">
  <path id="p_online" data-name="p online" d="M130.665,53.657a5.8,5.8,0,0,0-5.848,5.745V86.233a5.805,5.805,0,0,0,5.848,5.745h16.008V100.8H135a.93.93,0,1,0,0,1.86h34.629a.93.93,0,1,0,0-1.86h-11.67V91.978h16.007a5.806,5.806,0,0,0,5.848-5.745V59.4a5.805,5.805,0,0,0-5.848-5.745Zm0,1.86h43.3a3.891,3.891,0,0,1,3.955,3.885V83.609H126.711V59.4a3.891,3.891,0,0,1,3.955-3.885Zm21.1,4.85a11.906,11.906,0,0,0-7.584,2.709,11.459,11.459,0,0,0-2.633,14.674.955.955,0,0,0,1.655.013.916.916,0,0,0-.016-.943A9.6,9.6,0,0,1,145.4,64.5a10.032,10.032,0,0,1,12.734,0,9.6,9.6,0,0,1,2.211,12.319.921.921,0,0,0,.347,1.271.956.956,0,0,0,1.294-.341,11.46,11.46,0,0,0-2.635-14.674A11.906,11.906,0,0,0,151.765,60.367Zm-.013,4.784a.938.938,0,0,0-.933.942v.784h-1.164a3,3,0,1,0,0,6.007h4.221a1.144,1.144,0,1,1,0,2.288h-4.221a1.155,1.155,0,0,1-.979-.522.957.957,0,0,0-1.309-.277.92.92,0,0,0-.281,1.286,3.077,3.077,0,0,0,2.57,1.373h1.164v.782a.947.947,0,0,0,1.894,0v-.782h1.164a3,3,0,1,0,0-6.007h-4.221a1.144,1.144,0,1,1,0-2.288h4.221a1.155,1.155,0,0,1,.979.522.957.957,0,0,0,1.309.277.92.92,0,0,0,.282-1.286,3.078,3.078,0,0,0-2.571-1.373h-1.164v-.784a.921.921,0,0,0-.278-.67A.955.955,0,0,0,151.751,65.152ZM126.71,85.468h51.214v.765a3.891,3.891,0,0,1-3.955,3.885h-43.3a3.891,3.891,0,0,1-3.955-3.885Zm21.854,6.51h7.5V100.8h-7.5Z" transform="translate(-124.617 -53.457)" fill="#24367e" stroke="#24367e" stroke-width="0.4"/>
</svg>
