<svg xmlns="http://www.w3.org/2000/svg" width="21.5" height="21.5" viewBox="0 0 21.5 21.5">
  <path id="rect963-0" d="M5331.759-674.136a.37.37,0,0,0-.364.375V-660.4l-5.572-5.572a.369.369,0,0,0-.266-.112.37.37,0,0,0-.342.231.372.372,0,0,0,.085.4l6.165,6.164a.367.367,0,0,0,.3.153.37.37,0,0,0,.3-.154l6.164-6.164a.369.369,0,0,0,0-.522.37.37,0,0,0-.522,0l-5.572,5.572v-13.357a.365.365,0,0,0-.108-.266.367.367,0,0,0-.266-.108Zm-10.132,14.249a.37.37,0,0,0-.363.375v2.74a3.637,3.637,0,0,0,3.637,3.636h13.727a3.637,3.637,0,0,0,3.637-3.636v-2.74a.369.369,0,0,0-.369-.369.369.369,0,0,0-.369.369v2.74a2.884,2.884,0,0,1-2.9,2.9H5324.9a2.884,2.884,0,0,1-2.9-2.9v-2.74a.365.365,0,0,0-.108-.267A.369.369,0,0,0,5321.627-659.887Z" transform="translate(-5321.014 674.386)" fill="#24367e" stroke="#24367e" stroke-width="0.5"/>
</svg>
