<svg xmlns="http://www.w3.org/2000/svg" width="55.4" height="55.4" viewBox="0 0 55.4 55.4">
  <path id="ellipse2727-1-3" d="M284.444-65.224a.947.947,0,0,0-.947.947.947.947,0,0,0,.947.947h3.738v51.206h-3.738a.947.947,0,0,0-.947.947.947.947,0,0,0,.947.947h9.368a.947.947,0,0,0,.947-.947.947.947,0,0,0-.947-.947h-3.738V-63.331h3.738a.947.947,0,0,0,.947-.947.947.947,0,0,0-.947-.947Zm-22.6.007c-12.317,0-22.084,12.426-22.084,27.5s9.767,27.5,22.084,27.5,22.083-12.426,22.083-27.5S274.159-65.217,261.843-65.217Zm0,1.893c11.03,0,20.188,11.347,20.188,25.6s-9.158,25.6-20.188,25.6-20.19-11.347-20.19-25.6S250.813-63.323,261.843-63.323Zm0,3.535c-4.68,0-8.884,2.562-11.863,6.569a26.077,26.077,0,0,0-4.786,15.5,26.077,26.077,0,0,0,4.786,15.5c2.979,4.007,7.184,6.569,11.864,6.569s8.884-2.562,11.863-6.569a26.078,26.078,0,0,0,4.786-15.5,26.078,26.078,0,0,0-4.786-15.5C270.726-57.227,266.521-59.789,261.841-59.789Zm0,1.893c3.992,0,7.638,2.167,10.342,5.8A24.261,24.261,0,0,1,276.6-37.72a24.261,24.261,0,0,1-4.412,14.371c-2.7,3.637-6.352,5.8-10.344,5.8s-7.638-2.167-10.342-5.8a24.261,24.261,0,0,1-4.412-14.371A24.261,24.261,0,0,1,251.5-52.091c2.7-3.637,6.352-5.8,10.343-5.8Zm9.892,23.232a.947.947,0,0,0-.9.795c-.91,5.127-3.578,9-6.691,10.26a.946.946,0,0,0-.523,1.233.947.947,0,0,0,1.233.523c3.981-1.611,6.854-6.1,7.845-11.685a.946.946,0,0,0-.212-.8A.947.947,0,0,0,271.733-34.663Z" transform="translate(-239.559 65.424)" fill="#43c5ff" stroke="#43c5ff" stroke-width="0.4"/>
</svg>
