<svg xmlns="http://www.w3.org/2000/svg" width="33.2" height="57.2" viewBox="0 0 33.2 57.2">
  <path id="_2" data-name="2" d="M78.414,88.208a4.788,4.788,0,0,0-1.43,3.409v47.346a4.862,4.862,0,0,0,4.872,4.827H105.11a5.048,5.048,0,0,0,4.867-4.726.51.51,0,0,0,.007-.1V91.617a4.86,4.86,0,0,0-4.871-4.826H81.858a4.878,4.878,0,0,0-3.441,1.417ZM79.8,89.584a2.9,2.9,0,0,1,2.052-.832h23.254A2.85,2.85,0,0,1,108,91.617V134.96H96.626a3.3,3.3,0,0,0-6.287,0H78.965V91.617a2.842,2.842,0,0,1,.839-2.033Zm2.73,4.362a.98.98,0,0,0,.715,1.674h1.292a.981.981,0,1,0,0-1.961H83.246A.994.994,0,0,0,82.532,93.946Zm6.712,0a.98.98,0,0,0,.715,1.674h7.046a.981.981,0,1,0,0-1.962H89.956a1,1,0,0,0-.713.288Zm-10.28,42.976H90.338a3.3,3.3,0,0,0,6.287,0H108v1.953a2.981,2.981,0,0,1-2.89,2.953H81.855a2.849,2.849,0,0,1-2.89-2.864Zm13.581-1.909a1.32,1.32,0,0,1,.936-.378,1.3,1.3,0,1,1-.936.378Z" transform="translate(-76.883 -86.691)" fill="#ffffff" stroke="#24367e" stroke-width="0.2"/>
</svg>
