<svg xmlns="http://www.w3.org/2000/svg" width="55.4" height="55.4" viewBox="0 0 55.4 55.4">
  <path id="rect2521" d="M159.742-65.262a.946.946,0,0,0-.9.636.942.942,0,0,0-.052.487v2.5a6.435,6.435,0,0,1-6.472,6.468,6.435,6.435,0,0,1-6.472-6.468v-2.508a.945.945,0,0,0-.277-.818.947.947,0,0,0-.683-.277.947.947,0,0,0-.386.089l-18.987,5.22a.946.946,0,0,0-.7.912v13.236a.946.946,0,0,0,.7.913l8.13,2.179v25.712a.947.947,0,0,0,0,.511v5.26a.946.946,0,0,0,.945.946h35.445a.946.946,0,0,0,.947-.946V-42.691l8.13-2.179a.946.946,0,0,0,.7-.914V-59.019a.946.946,0,0,0-.7-.912l-18.906-5.2a.948.948,0,0,0-.474-.133Zm.939,2.222,4.2,1.156,4.209,18.577V-17.67H135.542V-43.312l4.206-18.571,4.2-1.156v1.4a8.366,8.366,0,0,0,8.365,8.36,8.365,8.365,0,0,0,8.364-8.36Zm-23,1.725-3.791,16.729-7.178-1.923V-58.3Zm29.277,0L177.924-58.3v11.791l-7.178,1.923ZM135.542-15.779h33.552v3.625H135.542Z" transform="translate(-124.617 65.462)" fill="#43c5ff" stroke="#43c5ff" stroke-width="0.4"/>
</svg>
