<svg xmlns="http://www.w3.org/2000/svg" width="55.413" height="34.4" viewBox="0 0 55.413 34.4">
  <path id="wysylka" d="M590.555-48.956a.941.941,0,0,0-.922.859.944.944,0,0,0,0,.138v5.443a.941.941,0,0,0,.46.843.941.941,0,0,0,.96,0,.941.941,0,0,0,.46-.843V-47.06H622.4v4.587l.118,10.94a.941.941,0,0,0,.951.93.941.941,0,0,0,.931-.951l-.108-9.992,6.062-.027L637.24-31.26v9.746h-3.685a5.636,5.636,0,0,0-5.537-4.676,5.636,5.636,0,0,0-5.537,4.676H606.27a5.636,5.636,0,0,0-5.537-4.676,5.636,5.636,0,0,0-5.537,4.676h-3.687v-4.544a.94.94,0,0,0-.275-.679.941.941,0,0,0-.679-.275.941.941,0,0,0-.926.954v5.485a.941.941,0,0,0,.355.77.941.941,0,0,0,.83.171H595.2a5.636,5.636,0,0,0,5.537,4.676,5.636,5.636,0,0,0,5.537-4.676h16.209a5.636,5.636,0,0,0,5.537,4.676,5.636,5.636,0,0,0,5.537-4.676h4.626a.941.941,0,0,0,.941-.941V-31.544a.941.941,0,0,0-.158-.522l-7.326-10.972a.941.941,0,0,0-.787-.418l-6.57.031V-48a.941.941,0,0,0-.941-.941H590.721a.941.941,0,0,0-.166-.013ZM585.1-37.97a.941.941,0,0,0-.844.457.941.941,0,0,0,0,.96.941.941,0,0,0,.84.464l20.3.084a.941.941,0,0,0,.945-.937.941.941,0,0,0-.937-.945Zm0,5.485a.941.941,0,0,0-.941.941.941.941,0,0,0,.941.941h10.962a.941.941,0,0,0,.941-.941.941.941,0,0,0-.941-.941Zm15.639,8.177a3.722,3.722,0,0,1,3.736,3.735,3.722,3.722,0,0,1-3.736,3.735A3.721,3.721,0,0,1,597-20.573,3.721,3.721,0,0,1,600.734-24.308Zm27.284,0a3.721,3.721,0,0,1,3.736,3.735,3.721,3.721,0,0,1-3.736,3.735,3.721,3.721,0,0,1-3.736-3.735A3.721,3.721,0,0,1,628.018-24.308Z" transform="translate(-583.909 49.156)" fill="#24367e" stroke="#24367e" stroke-width="0.4"/>
</svg>
