<svg xmlns="http://www.w3.org/2000/svg" width="55" height="55" viewBox="0 0 55 55">
  <g id="Group_478" data-name="Group 478" transform="translate(-1.114 -0.875)">
    <path id="Path_99" data-name="Path 99" d="M1.837,75.571l17.211,7.5H19.1a15.926,15.926,0,0,0,5.849,1.064,15.754,15.754,0,0,0,3.6-.392L43.4,81l3.318-.672V81a1.126,1.126,0,0,0,1.125,1.12h7.143A1.126,1.126,0,0,0,56.114,81V66.22a1.126,1.126,0,0,0-1.125-1.12H47.846a1.126,1.126,0,0,0-1.125,1.12v.728c-2.137-.5-4.837-.952-4.95-.952h-.056A17.123,17.123,0,0,0,31.591,68.4a5.654,5.654,0,0,1-2.868.784h-4.95A5.521,5.521,0,0,0,18.542,73L8.98,70.251H8.924a6.531,6.531,0,0,0-7.762,3.92A1.151,1.151,0,0,0,1.837,75.571ZM48.97,67.34h4.893V79.882H48.97ZM3.862,74a4.157,4.157,0,0,1,4.612-1.568l9.955,2.856a2.413,2.413,0,0,0,2.362,2.016H34.009a1.12,1.12,0,1,0,0-2.24H20.735a.149.149,0,0,1-.169-.168v-.336a3.2,3.2,0,0,1,3.206-3.192h4.95a8.182,8.182,0,0,0,3.993-1.064,15.624,15.624,0,0,1,8.662-2.184c.394.056,3.318.56,5.231,1.064h.056v8.847l-3.768.728-14.849,2.8A14.432,14.432,0,0,1,19.892,81Z" transform="translate(0 -28.263)" fill="#fff"/>
    <g id="Group_476" data-name="Group 476" transform="translate(2.723 0.875)">
      <path id="Path_100" data-name="Path 100" d="M23.675,40.085a2.92,2.92,0,0,1-1.969-.784l-4.162-4.144H11.695a2.754,2.754,0,0,1-2.756-2.744V26.534L4.776,22.391a2.729,2.729,0,0,1,0-3.864l4.162-4.144V8.56a2.754,2.754,0,0,1,2.756-2.744h5.849l4.162-4.144a2.758,2.758,0,0,1,3.881,0l4.162,4.144H35.6A2.754,2.754,0,0,1,38.355,8.56v5.823l4.162,4.144h0a2.729,2.729,0,0,1,0,3.864l-4.162,4.144v5.823A2.754,2.754,0,0,1,35.6,35.1H29.749l-4.162,4.144A2.524,2.524,0,0,1,23.675,40.085ZM11.695,7.832a.743.743,0,0,0-.731.728v6.271a1.176,1.176,0,0,1-.281.728l-4.5,4.424a.776.776,0,0,0,0,1.064l4.443,4.424a1.062,1.062,0,0,1,.281.728V32.47a.743.743,0,0,0,.731.728h6.3a1.188,1.188,0,0,1,.731.28L23.112,37.9a.785.785,0,0,0,1.069,0l4.443-4.424a1.072,1.072,0,0,1,.731-.28h6.3a.743.743,0,0,0,.731-.728V26.142a1.176,1.176,0,0,1,.281-.728l4.443-4.424a.776.776,0,0,0,0-1.064L36.667,15.5a1.062,1.062,0,0,1-.281-.728V8.56a.743.743,0,0,0-.731-.728h-6.3a1.188,1.188,0,0,1-.731-.28L24.181,3.129a.785.785,0,0,0-1.069,0L18.669,7.552a1.072,1.072,0,0,1-.731.28Z" transform="translate(-3.975 -0.875)" fill="#fff"/>
    </g>
    <g id="Group_477" data-name="Group 477" transform="translate(9.711 7.832)">
      <path id="Path_101" data-name="Path 101" d="M29.111,38.609A12.655,12.655,0,1,1,41.823,25.955,12.706,12.706,0,0,1,29.111,38.609Zm0-23.349A10.695,10.695,0,1,0,39.854,25.955,10.754,10.754,0,0,0,29.111,15.26Z" transform="translate(-16.4 -13.3)" fill="#fff"/>
    </g>
    <path id="Path_102" data-name="Path 102" d="M35.893,27.719a1.88,1.88,0,0,1-1.969-1.736,1.984,1.984,0,0,1,3.937,0,1.012,1.012,0,0,0,2.025,0,3.825,3.825,0,0,0-2.981-3.64V20.608a1.012,1.012,0,0,0-2.025,0v1.736a3.813,3.813,0,0,0-2.981,3.64,3.946,3.946,0,0,0,4.05,3.808,1.75,1.75,0,1,1-1.969,1.736,1.012,1.012,0,0,0-2.025,0,3.825,3.825,0,0,0,2.981,3.64V36.9a1.012,1.012,0,0,0,2.025,0V35.166a3.813,3.813,0,0,0,2.981-3.64A3.91,3.91,0,0,0,35.893,27.719Z" transform="translate(-13.471 -8.24)" fill="#fff"/>
  </g>
</svg>
