<svg xmlns="http://www.w3.org/2000/svg" xmlns:xlink="http://www.w3.org/1999/xlink" viewBox="0 0 314.19 94.08"><defs><style>.cls-1,.cls-5{fill:#fff;}.cls-2{fill:#d9dada;}.cls-3{fill:#3b3b3a;}.cls-3,.cls-4,.cls-5,.cls-6,.cls-7,.cls-8{fill-rule:evenodd;}.cls-4{fill:#575656;}.cls-6{fill:url(#GradientFill_4);}.cls-7{fill:url(#GradientFill_4-2);}.cls-8{fill:url(#GradientFill_5);}</style><linearGradient id="GradientFill_4" x1="124.31" y1="48.63" x2="96.6" y2="7.55" gradientUnits="userSpaceOnUse"><stop offset="0" stop-color="#575656"/><stop offset="1" stop-color="#ececed"/></linearGradient><linearGradient id="GradientFill_4-2" x1="-341.76" y1="604.06" x2="406.56" y2="-548.24" xlink:href="#GradientFill_4"/><linearGradient id="GradientFill_5" x1="25.81" y1="11.68" x2="39.23" y2="12.38" gradientUnits="userSpaceOnUse"><stop offset="0" stop-color="#fff"/><stop offset="1" stop-color="#ececed"/></linearGradient></defs><g id="Layer_2" data-name="Layer 2"><g id="Layer_2-2" data-name="Layer 2"><path class="cls-1" d="M179,20.75a10.13,10.13,0,0,1-3.78,8.06,13,13,0,0,1,3.19,1.89,12.59,12.59,0,0,1,2.48,2.68,13,13,0,0,1,1.6,3.29,12.51,12.51,0,0,1-3.13,12.7,12.1,12.1,0,0,1-8.88,3.68h-16V10.19h14.29A10.65,10.65,0,0,1,179,20.75ZM157.89,27.9H168.4a6.88,6.88,0,0,0,5-2.1,6.68,6.68,0,0,0,2.14-5.05,6.8,6.8,0,0,0-2.14-5.05,6.91,6.91,0,0,0-5-2.09H157.89Zm0,3.36V49.68h11.58v-.1a9,9,0,0,0,7.14-2.25A9.2,9.2,0,0,0,177,34a8.81,8.81,0,0,0-6.48-2.71,4.36,4.36,0,0,0-.51,0l-.51.07v-.1Z"/><path class="cls-1" d="M210.64,49.12a14.39,14.39,0,0,1-10.36,4.08,14.65,14.65,0,0,1-10.1-3.78A13.73,13.73,0,0,1,186,39.32V34.78A14.36,14.36,0,0,1,200.28,20.5a14.36,14.36,0,0,1,14.28,14.28v4h-25.2v.56a10.56,10.56,0,0,0,3.22,7.76,10.81,10.81,0,0,0,7.7,3.16,10.55,10.55,0,0,0,8-3.52Zm.51-13.78v-.56a10.32,10.32,0,0,0-3.22-7.65,10.35,10.35,0,0,0-7.65-3.21,10.51,10.51,0,0,0-7.7,3.21,10.32,10.32,0,0,0-3.22,7.65v.56Z"/><path class="cls-1" d="M224.46,13.61v7.5h5.1v3.37h-5.1V46.92c0,1.84.9,2.76,2.71,2.76H229v3.37h-1.84a6,6,0,0,1-6-6.13V24.48h-5V21.11h5v-7.5Z"/><path class="cls-1" d="M236.75,10.19v5.67h-3.41V10.19Zm0,10.92V53.05h-3.41V21.11Z"/><path class="cls-1" d="M263.59,53.05h-3.37V31.47a7.56,7.56,0,0,0-7.5-7.55,7.31,7.31,0,0,0-5.35,2.24,6.94,6.94,0,0,0-2.15,5.31V53.05h-3.36V31.47A10.82,10.82,0,0,1,245,23.76a10.22,10.22,0,0,1,7.7-3.26A10.46,10.46,0,0,1,258,21.88a11.1,11.1,0,0,1,3.88,3.67,10.81,10.81,0,0,1,16.88-1.79A10.33,10.33,0,0,1,282,31.47V53.05h-3.41V31.26a7.29,7.29,0,0,0-2.25-5.15,7,7,0,0,0-5.2-2.19,7.2,7.2,0,0,0-5.26,2.19,7.32,7.32,0,0,0-2.24,5.15Z"/><path class="cls-1" d="M314.19,34.78v4.54A13.79,13.79,0,0,1,310,49.42a15.32,15.32,0,0,1-20.15,0,13.73,13.73,0,0,1-4.18-10.1V34.78a14.28,14.28,0,1,1,28.56,0Zm-3.41,0a10.32,10.32,0,0,0-3.22-7.65,10.35,10.35,0,0,0-7.65-3.21,10.51,10.51,0,0,0-7.7,3.21A10.32,10.32,0,0,0,289,34.78v4.54a10.56,10.56,0,0,0,3.22,7.76,10.81,10.81,0,0,0,7.7,3.16A10.35,10.35,0,0,0,307.56,47a10.5,10.5,0,0,0,3.22-7.71Z"/><path class="cls-2" d="M153.9,66.19c0-.44.19-.67.57-.67h4.13a.46.46,0,0,1,.52.52c0,.34-.17.5-.52.5h-3.67v3.7h2.77a.46.46,0,0,1,.52.53c0,.34-.17.5-.52.5h-2.77v4.19c0,.28-.18.42-.53.42s-.5-.14-.5-.42Z"/><path class="cls-2" d="M174.67,70.62c0,2.7-1.51,5.4-4.52,5.4s-4.45-2.73-4.45-5.45,1.48-5.4,4.45-5.4S174.67,67.9,174.67,70.62Zm-7.89-.07c0,2.23,1.14,4.46,3.4,4.46s3.4-2.16,3.4-4.35-1.14-4.44-3.43-4.44S166.78,68.36,166.78,70.55Z"/><path class="cls-2" d="M183,66.53h-2c-.38,0-.56-.17-.56-.5s.18-.52.56-.52h5.16a.46.46,0,0,1,.53.52c0,.33-.18.5-.53.5h-2.07v8.76c0,.39-.17.59-.5.59s-.54-.2-.54-.59Z"/><path class="cls-2" d="M201.38,70.62c0,2.7-1.51,5.4-4.52,5.4s-4.45-2.73-4.45-5.45,1.48-5.4,4.45-5.4S201.38,67.9,201.38,70.62Zm-7.89-.07c0,2.23,1.14,4.46,3.4,4.46s3.4-2.16,3.4-4.35-1.14-4.44-3.43-4.44S193.49,68.36,193.49,70.55Z"/><path class="cls-2" d="M215.79,73.83a.48.48,0,0,1,.5.52.68.68,0,0,1-.21.52,4.41,4.41,0,0,1-3,1.16c-3.19,0-4.77-2.67-4.77-5.37s1.64-5.52,4.86-5.52a4.22,4.22,0,0,1,3,1.15.67.67,0,0,1,.27.51.53.53,0,0,1-.51.56.68.68,0,0,1-.43-.17,3.29,3.29,0,0,0-2.32-.91c-2.47,0-3.68,2.14-3.68,4.28S210.71,75,213.14,75a3.25,3.25,0,0,0,2.3-1A.47.47,0,0,1,215.79,73.83Z"/><path class="cls-2" d="M223.7,66.15q0-.63.57-.63h4.26A.45.45,0,0,1,229,66a.44.44,0,0,1-.51.5h-3.81V70h3.13a.46.46,0,0,1,.52.53c0,.32-.17.49-.52.49h-3.13v3.85h3.92c.4,0,.6.16.6.51s-.2.51-.6.51h-4.37c-.5,0-.57-.13-.57-.63Z"/><path class="cls-2" d="M236.05,66.07c0-.38.26-.56.79-.56h3.22a3,3,0,0,1,3.19,2.91,2.76,2.76,0,0,1-2.15,2.69l2,3.83a1.17,1.17,0,0,1,.12.49.41.41,0,0,1-.45.46.47.47,0,0,1-.47-.28L240,71.33h-2.94v3.92q0,.63-.51.63c-.35,0-.51-.21-.51-.63Zm1,.46v3.78h3.1a1.84,1.84,0,0,0,2-1.85,1.91,1.91,0,0,0-2-1.93Z"/><path class="cls-2" d="M256.58,73.75h-4.81l-.58,1.6a.66.66,0,0,1-.63.53.43.43,0,0,1-.44-.49.82.82,0,0,1,0-.28l3.16-9a.84.84,0,0,1,1.63,0l3.27,9a.83.83,0,0,1,.06.29.45.45,0,0,1-.48.48.49.49,0,0,1-.5-.34Zm-4.52-1.06h4.14l-2-5.74Z"/><path class="cls-2" d="M270.64,74,273,66.4c.18-.6.54-.9,1-.9s.77.33.87,1l1.3,8.73s0,.07,0,.11a.49.49,0,0,1-.52.5c-.34,0-.5-.18-.56-.56l-1.19-8.49-2.73,8.47c-.13.4-.33.6-.57.6s-.45-.2-.58-.6L267.4,66.8l-1.28,8.49c-.06.38-.21.57-.56.57a.43.43,0,0,1-.49-.47,1,1,0,0,1,0-.17l1.39-8.7c.11-.7.4-1,.89-1s.8.3,1,.93Z"/><path class="cls-2" d="M283.24,66a.44.44,0,0,1,.5-.51c.35,0,.52.16.52.51v9.35a.46.46,0,0,1-.52.52c-.33,0-.5-.17-.5-.52Z"/><path class="cls-2" d="M291.37,65.93c0-.3.17-.43.51-.43s.53.13.53.43V71l4.88-5.39a.4.4,0,0,1,.32-.13.61.61,0,0,1,.58.56.42.42,0,0,1-.14.32l-3,3.29L298.28,75a.53.53,0,0,1,.17.4.59.59,0,0,1-.52.52.54.54,0,0,1-.47-.24l-3.18-5.19-1.87,2v3c0,.29-.17.45-.51.45s-.53-.16-.53-.45Z"/><path class="cls-2" d="M311.6,73.75h-4.81l-.58,1.6c-.13.35-.34.53-.63.53a.44.44,0,0,1-.45-.49.82.82,0,0,1,.06-.28l3.16-9a.84.84,0,0,1,1.63,0l3.27,9a.83.83,0,0,1,.06.29.45.45,0,0,1-.48.48.49.49,0,0,1-.5-.34Zm-4.52-1.06h4.14l-2-5.74Z"/><path class="cls-3" d="M1.6,30.42s20.86-18.75,44-18.75h0s15.88-.59,15.88,11.1h0S62.69,31.68,39,44.86c-44.43,24.74-6.88,68.4,57.52,39.9,39.83-17.63,37.73-40.95,36.23-45.45S126,21.53,87.72,21.53h0a.87.87,0,0,0,.09,1.73c.06,0,35.67.67,35.52,20.55S87,86,59.13,85.58,28.68,70.36,28.53,65.41c-.64-21.25,35.32-25.8,35.93-44.78C64.83,8.93,49.6,7.66,45,7.81A59.47,59.47,0,0,0,.33,29.55h0s-.7.74-.07,1.22S1.6,30.42,1.6,30.42Z"/><path class="cls-4" d="M2.17,23.48S23,4.73,46.15,4.73h0s15.88-.6,15.88,11.1h0s1.21,8.91-22.44,22.08c-44.43,24.74-6.88,68.4,57.52,39.9C137,60.19,134.86,36.86,133.36,32.36s-6.8-17.77-45.07-17.77h0a.87.87,0,0,0,.09,1.73c.07,0,35.68.67,35.53,20.54S87.6,79,59.7,78.64,29.25,63.41,29.1,58.46C28.45,37.22,64.41,32.67,65,13.69,65.4,2,50.17.71,45.52.86A59.45,59.45,0,0,0,.9,22.61h0s-.7.75-.07,1.23S2.17,23.48,2.17,23.48Z"/><path class="cls-5" d="M35.75,39C-3.4,64,33.83,104.72,96.56,77,136.39,59.34,134.29,36,132.79,31.51c-.79-2.36-2.62-7.14-9.72-11.15a14.66,14.66,0,0,1,4.06,10.7c-.58,9.21-7.06,19.21-15.36,25.68-13,12-34.53,21.29-52.64,21.05-9.28-.13-15.75-1.86-20.26-4.28h0S24.3,67.61,24.3,57C24.3,47.37,34,40.26,35.75,39Z"/><path class="cls-6" d="M123.07,20.36c-6.43-3.63-17.17-6.62-35.35-6.62h0a.87.87,0,0,0,.09,1.73c.06,0,35.67.67,35.52,20.54,0,7-4.55,14.25-11.56,20.73,8.3-6.47,14.78-16.47,15.36-25.68A14.66,14.66,0,0,0,123.07,20.36Z"/><path class="cls-7" d="M1.6,22.63s20.86-18.75,44-18.75h0S61.48,3.28,61.48,15h0S62.69,23.89,39,37.06c-1.16.64-2.24,1.3-3.29,2C34,40.26,24.3,47.37,24.3,57c0,10.62,14.55,16.51,14.55,16.51h0c-9.07-4.88-10.24-12.59-10.34-15.9-.64-21.24,35.32-25.79,35.93-44.77C64.83,1.14,49.6-.14,45,0A59.45,59.45,0,0,0,.33,21.76h0s-.7.75-.07,1.22S1.6,22.63,1.6,22.63Z"/><path class="cls-8" d="M64.35,14.13c.05-.43.09-.86.11-1.29C64.83,1.14,49.6-.14,45,0A59.45,59.45,0,0,0,.33,21.76h0s-.7.75-.07,1.22C.26,23,13,8,36.74,3s26.47,9.3,26.47,9.3a11.77,11.77,0,0,1-1.51,1.59c.89,0,1.78.13,2.65.24ZM.26,23l.24.13A.94.94,0,0,1,.26,23Z"/></g></g></svg>