<svg xmlns="http://www.w3.org/2000/svg" xmlns:xlink="http://www.w3.org/1999/xlink" viewBox="0 0 314.19 94.08"><defs><style>.cls-1{fill:#1a1a18;}.cls-2{fill:#d9dada;}.cls-2,.cls-3,.cls-4,.cls-5,.cls-6,.cls-7{fill-rule:evenodd;}.cls-3{fill:#005585;}.cls-4{fill:url(#GradientFill_1);}.cls-5{fill:url(#GradientFill_2);}.cls-6{fill:url(#GradientFill_2-2);}.cls-7{fill:url(#GradientFill_3);}.cls-8{fill:#b1b2b3;}</style><radialGradient id="GradientFill_1" cx="76.57" cy="53.32" r="50.49" gradientUnits="userSpaceOnUse"><stop offset="0" stop-color="#009ee3"/><stop offset="0.5" stop-color="#009ee3"/><stop offset="1" stop-color="#89ced6"/></radialGradient><linearGradient id="GradientFill_2" x1="124.32" y1="48.63" x2="96.6" y2="7.55" gradientUnits="userSpaceOnUse"><stop offset="0" stop-color="#005585"/><stop offset="1" stop-color="#009ee3"/></linearGradient><linearGradient id="GradientFill_2-2" x1="27.71" y1="41.39" x2="30.61" y2="26.43" xlink:href="#GradientFill_2"/><linearGradient id="GradientFill_3" x1="25.81" y1="11.68" x2="39.23" y2="12.38" gradientUnits="userSpaceOnUse"><stop offset="0" stop-color="#62c3d0"/><stop offset="1" stop-color="#009ee3"/></linearGradient></defs><g id="Layer_2" data-name="Layer 2"><g id="Layer_1-2" data-name="Layer 1"><path class="cls-1" d="M179,20.75a10.13,10.13,0,0,1-3.78,8.06,13,13,0,0,1,3.19,1.89,12.59,12.59,0,0,1,2.48,2.68,13,13,0,0,1,1.6,3.29,12.5,12.5,0,0,1-3.14,12.7,12.06,12.06,0,0,1-8.87,3.68h-16V10.19h14.29A10.65,10.65,0,0,1,179,20.75ZM157.89,27.9H168.4a6.88,6.88,0,0,0,5-2.1,6.68,6.68,0,0,0,2.14-5.05,6.8,6.8,0,0,0-2.14-5.05,6.91,6.91,0,0,0-5-2.09H157.89Zm0,3.36V49.68h11.58v-.1a9,9,0,0,0,7.14-2.25A9.2,9.2,0,0,0,177,34a8.81,8.81,0,0,0-6.48-2.71,4.36,4.36,0,0,0-.51,0l-.51.07v-.1Z"/><path class="cls-1" d="M210.64,49.12a14.39,14.39,0,0,1-10.36,4.08,14.65,14.65,0,0,1-10.1-3.78A13.73,13.73,0,0,1,186,39.32V34.78A14.36,14.36,0,0,1,200.28,20.5a13.7,13.7,0,0,1,10.05,4.18,13.59,13.59,0,0,1,4.24,10.1v4H189.36v.56a10.6,10.6,0,0,0,3.22,7.76,10.81,10.81,0,0,0,7.7,3.16,10.53,10.53,0,0,0,8-3.52Zm.51-13.78v-.56a10.32,10.32,0,0,0-3.22-7.65,10.35,10.35,0,0,0-7.65-3.21,10.51,10.51,0,0,0-7.7,3.21,10.36,10.36,0,0,0-3.22,7.65v.56Z"/><path class="cls-1" d="M224.46,13.61v7.5h5.1v3.37h-5.1V46.92q0,2.76,2.7,2.76H229v3.37h-1.84a6,6,0,0,1-6-6.13V24.48h-5V21.11h5v-7.5Z"/><path class="cls-1" d="M236.76,10.19v5.67h-3.42V10.19Zm0,10.92V53.05h-3.42V21.11Z"/><path class="cls-1" d="M263.59,53.05h-3.37V31.47a7.5,7.5,0,0,0-12.85-5.31,6.91,6.91,0,0,0-2.15,5.31V53.05h-3.36V31.47A10.82,10.82,0,0,1,245,23.76a10.22,10.22,0,0,1,7.7-3.26A10.46,10.46,0,0,1,258,21.88a11,11,0,0,1,3.87,3.67,10.8,10.8,0,0,1,9.19-5.05,10.44,10.44,0,0,1,7.7,3.26A10.33,10.33,0,0,1,282,31.47V53.05h-3.41V31.26a7.29,7.29,0,0,0-2.25-5.15,7,7,0,0,0-5.2-2.19,7.2,7.2,0,0,0-5.26,2.19,7.28,7.28,0,0,0-2.24,5.15Z"/><path class="cls-1" d="M314.19,34.78v4.54A13.79,13.79,0,0,1,310,49.42a15.32,15.32,0,0,1-20.15,0,13.73,13.73,0,0,1-4.18-10.1V34.78a14.28,14.28,0,1,1,28.56,0Zm-3.41,0a10.36,10.36,0,0,0-3.22-7.65,10.35,10.35,0,0,0-7.65-3.21,10.51,10.51,0,0,0-7.7,3.21A10.32,10.32,0,0,0,289,34.78v4.54a10.56,10.56,0,0,0,3.22,7.76,10.79,10.79,0,0,0,7.7,3.16A10.35,10.35,0,0,0,307.56,47a10.54,10.54,0,0,0,3.22-7.71Z"/><path class="cls-2" d="M1.6,30.42s20.87-18.75,44-18.75h0s15.88-.59,15.88,11.1h0S62.69,31.68,39,44.86c-44.43,24.74-6.88,68.4,57.52,39.9,39.83-17.63,37.73-40.95,36.23-45.45S126,21.53,87.72,21.53h0a.87.87,0,0,0,.09,1.73c.06,0,35.67.67,35.52,20.55S87,86,59.13,85.58,28.68,70.36,28.53,65.41c-.64-21.25,35.32-25.8,35.92-44.78C64.83,8.93,49.6,7.66,45,7.81A59.48,59.48,0,0,0,.33,29.55h0s-.7.74-.07,1.22S1.6,30.42,1.6,30.42Z"/><path class="cls-3" d="M2.17,23.48S23,4.73,46.15,4.73h0s15.88-.6,15.88,11.1h0s1.21,8.91-22.44,22.08c-44.43,24.74-6.88,68.4,57.52,39.9C137,60.19,134.86,36.86,133.36,32.36s-6.8-17.77-45.07-17.77h0a.87.87,0,0,0,.09,1.73c.07,0,35.68.67,35.53,20.54S87.6,79,59.7,78.64,29.25,63.41,29.1,58.46C28.45,37.22,64.41,32.67,65,13.69,65.4,2,50.17.71,45.52.86A59.45,59.45,0,0,0,.9,22.61h0s-.7.75-.07,1.23S2.17,23.48,2.17,23.48Z"/><path class="cls-4" d="M35.75,39C-3.4,64,33.83,104.72,96.56,77,136.39,59.34,134.29,36,132.79,31.51c-.79-2.36-2.62-7.14-9.72-11.15a14.66,14.66,0,0,1,4.06,10.7c-.58,9.21-7.06,19.21-15.36,25.68-13,12-34.53,21.29-52.64,21.05-9.28-.13-15.75-1.86-20.26-4.28h0S24.3,67.61,24.3,57C24.3,47.37,34,40.26,35.75,39Z"/><path class="cls-5" d="M123.07,20.36c-6.43-3.63-17.17-6.62-35.35-6.62h0a.87.87,0,0,0,.09,1.73c.06,0,35.67.67,35.52,20.54,0,7-4.55,14.25-11.56,20.73,8.3-6.47,14.78-16.47,15.36-25.68A14.66,14.66,0,0,0,123.07,20.36Z"/><path class="cls-6" d="M1.6,22.63s20.87-18.75,44-18.75h0S61.48,3.28,61.48,15h0S62.69,23.89,39,37.06c-1.16.64-2.24,1.3-3.29,2C34,40.26,24.3,47.37,24.3,57c0,10.62,14.55,16.51,14.55,16.51h0c-9.07-4.88-10.24-12.59-10.34-15.9-.64-21.24,35.32-25.79,35.92-44.77C64.83,1.14,49.6-.14,45,0A59.46,59.46,0,0,0,.33,21.76h0s-.7.75-.07,1.22S1.6,22.63,1.6,22.63Z"/><path class="cls-7" d="M64.35,14.13c.05-.43.09-.86.1-1.29C64.83,1.14,49.6-.14,45,0A59.46,59.46,0,0,0,.33,21.76h0s-.7.75-.07,1.22C.26,23,13,8,36.74,3s26.47,9.3,26.47,9.3a11.77,11.77,0,0,1-1.51,1.59c.89,0,1.78.13,2.65.24ZM.26,23l.24.13A.94.94,0,0,1,.26,23Z"/><path class="cls-8" d="M153.5,62.52c0-.45.2-.67.58-.67h4.13c.35,0,.51.17.51.52a.44.44,0,0,1-.51.5h-3.67v3.7h2.77a.46.46,0,0,1,.52.53c0,.33-.17.5-.52.5h-2.77v4.19c0,.28-.18.42-.53.42s-.51-.14-.51-.42Z"/><path class="cls-8" d="M174.27,66.94c0,2.7-1.51,5.41-4.51,5.41s-4.45-2.73-4.45-5.45,1.48-5.4,4.45-5.4S174.27,64.23,174.27,66.94Zm-7.89-.07c0,2.24,1.15,4.47,3.4,4.47s3.4-2.16,3.4-4.35-1.13-4.44-3.42-4.44S166.38,64.69,166.38,66.87Z"/><path class="cls-8" d="M182.62,62.86h-2.05c-.38,0-.56-.17-.56-.51s.18-.51.56-.51h5.16a.51.51,0,1,1,0,1h-2.07v8.76c0,.39-.17.59-.51.59s-.53-.2-.53-.59Z"/><path class="cls-8" d="M201,66.94c0,2.7-1.51,5.41-4.52,5.41S192,69.62,192,66.9s1.48-5.4,4.45-5.4S201,64.23,201,66.94Zm-7.9-.07c0,2.24,1.15,4.47,3.4,4.47s3.41-2.16,3.41-4.35-1.14-4.44-3.43-4.44S193.09,64.69,193.09,66.87Z"/><path class="cls-8" d="M215.39,70.16a.47.47,0,0,1,.51.52.68.68,0,0,1-.21.52,4.46,4.46,0,0,1-3,1.16c-3.19,0-4.77-2.67-4.77-5.37s1.64-5.52,4.86-5.52a4.22,4.22,0,0,1,2.95,1.15.64.64,0,0,1,.26.5.51.51,0,0,1-.5.56.71.71,0,0,1-.43-.16,3.25,3.25,0,0,0-2.33-.91c-2.46,0-3.68,2.14-3.68,4.28s1.26,4.39,3.7,4.39a3.21,3.21,0,0,0,2.29-1A.45.45,0,0,1,215.39,70.16Z"/><path class="cls-8" d="M223.31,62.48q0-.63.57-.63h4.25a.46.46,0,0,1,.52.52c0,.33-.17.5-.52.5h-3.8v3.44h3.13a.47.47,0,0,1,.52.54c0,.32-.17.49-.52.49h-3.13v3.84h3.92c.4,0,.6.17.6.52s-.2.51-.6.51h-4.37c-.5,0-.57-.13-.57-.63Z"/><path class="cls-8" d="M235.65,62.4c0-.38.27-.56.8-.56h3.22a3,3,0,0,1,3.19,2.91,2.75,2.75,0,0,1-2.16,2.68l2,3.84a1,1,0,0,1,.13.49.42.42,0,0,1-.45.46.48.48,0,0,1-.47-.28l-2.26-4.28h-2.93v3.92q0,.63-.51.63c-.35,0-.52-.21-.52-.63Zm1,.46v3.78h3.1a1.84,1.84,0,0,0,2-1.85,1.91,1.91,0,0,0-2-1.93Z"/><path class="cls-8" d="M256.19,70.08h-4.82l-.57,1.59c-.13.35-.34.54-.63.54a.44.44,0,0,1-.45-.49.82.82,0,0,1,.06-.28l3.16-9a.84.84,0,0,1,1.63,0l3.27,9a.79.79,0,0,1,.06.29.45.45,0,0,1-.48.48.49.49,0,0,1-.5-.34ZM251.67,69h4.14l-2-5.73Z"/><path class="cls-8" d="M270.24,70.36l2.35-7.63c.19-.6.55-.91,1-.91s.77.34.87,1l1.3,8.74s0,.07,0,.11a.48.48,0,0,1-.51.5c-.34,0-.51-.18-.56-.56l-1.19-8.49-2.73,8.46c-.13.41-.34.61-.57.61s-.45-.2-.58-.61L267,63.12l-1.29,8.5c-.05.38-.21.57-.56.57a.44.44,0,0,1-.49-.47.47.47,0,0,1,0-.17l1.38-8.71c.12-.7.41-1,.9-1s.8.3,1,.93Z"/><path class="cls-8" d="M282.85,62.34c0-.35.16-.52.5-.52a.46.46,0,0,1,.52.52v9.35a.46.46,0,0,1-.52.52c-.34,0-.5-.17-.5-.52Z"/><path class="cls-8" d="M291,62.26c0-.3.17-.44.5-.44s.54.14.54.44v5.1L296.9,62a.4.4,0,0,1,.32-.13.6.6,0,0,1,.57.56.39.39,0,0,1-.14.32l-3,3.29,3.24,5.28a.53.53,0,0,1,.17.4.59.59,0,0,1-.52.52.54.54,0,0,1-.47-.24l-3.18-5.19-1.87,2v3c0,.29-.17.45-.51.45s-.53-.16-.53-.45Z"/><path class="cls-8" d="M311.21,70.08h-4.82l-.57,1.59c-.13.35-.34.54-.63.54a.44.44,0,0,1-.45-.49.82.82,0,0,1,.06-.28l3.16-9a.84.84,0,0,1,1.62,0l3.28,9a.77.77,0,0,1,.05.29.44.44,0,0,1-.47.48.51.51,0,0,1-.51-.34ZM306.69,69h4.14l-2-5.73Z"/></g></g></svg>