<?xml version="1.0" encoding="utf-8"?>
<!-- Generator: Adobe Illustrator 25.3.1, SVG Export Plug-In . SVG Version: 6.00 Build 0)  -->
<svg version="1.1" id="Layer_1" xmlns="http://www.w3.org/2000/svg" xmlns:xlink="http://www.w3.org/1999/xlink" x="0px" y="0px"
	 viewBox="0 0 69 70" style="enable-background:new 0 0 69 70;" xml:space="preserve">
<style type="text/css">
	.st0{fill:#00A0E3;}
	.st1{fill:#F1D04C;}
</style>
<g id="Group_484" transform="translate(150.767 0.154)">
	<path id="Path_110" class="st0" d="M-89.5,33.2c-0.3-0.5-1-0.6-1.5-0.3c0,0,0,0,0,0l0,0l-23.2,15.3c-1.1,0.8-2.6,0.8-3.7,0
		l-23.7-15.5c-0.5-0.3-1.2-0.2-1.5,0.3c0,0,0,0,0,0c-0.3,0.5-0.2,1.2,0.3,1.5l23.7,15.5c1.8,1.2,4.2,1.2,6.1,0l23.2-15.3
		C-89.3,34.4-89.2,33.7-89.5,33.2z"/>
	<path id="Path_111" class="st0" d="M-128.7,49.5l-14,8.7c-0.5,0.3-0.7,1-0.4,1.5c0.3,0.5,1,0.7,1.5,0.4c0,0,0,0,0,0l0,0l14-8.6
		c0.5-0.3,0.7-1,0.4-1.5C-127.5,49.3-128.2,49.2-128.7,49.5C-128.7,49.5-128.7,49.5-128.7,49.5L-128.7,49.5z"/>
	<path id="Path_112" class="st0" d="M-89.8,58.1l-14-8.6c-0.5-0.3-1.2-0.2-1.5,0.4c0,0,0,0,0,0c-0.3,0.5-0.2,1.2,0.4,1.5l0,0l14,8.6
		c0.5,0.3,1.2,0.2,1.5-0.4c0,0,0,0,0,0C-89.2,59.1-89.3,58.4-89.8,58.1z"/>
	<path id="Path_113" class="st0" d="M-86.1,25.5h-4.5c-0.5,0.9-1.1,1.6-1.9,2.2h6.5c1.2,0,2.2,1,2.2,2.2v35.7c0,1.2-1,2.2-2.2,2.2
		h-60.4c-1.2,0-2.2-1-2.2-2.2V29.9c0-1.2,1-2.2,2.2-2.2h9.6l-0.8-2.2h-8.8c-2.4,0-4.3,1.9-4.3,4.3v35.7c0,2.4,1.9,4.3,4.3,4.3h60.4
		c2.4,0,4.3-1.9,4.3-4.3V29.9C-81.8,27.5-83.7,25.5-86.1,25.5z"/>
	<path id="Path_114" class="st1" d="M-128,38.6c-2.2,0-4.2-1.4-4.9-3.5l-6-17.3c-0.9-2.7,0.5-5.7,3.2-6.6l31.8-11
		c0.5-0.2,1.1-0.3,1.7-0.3c2.2,0,4.2,1.4,5,3.5l6,17.3c0.9,2.7-0.5,5.7-3.2,6.6l-31.8,11C-126.9,38.5-127.5,38.6-128,38.6z
		 M-102.3,1.7c-0.4,0-0.7,0.1-1.1,0.2l-31.8,11c-1.8,0.6-2.7,2.6-2.1,4.3l6,17.3c0.5,1.4,1.8,2.3,3.2,2.3c0.4,0,0.7-0.1,1.1-0.2
		l31.8-11c1.8-0.6,2.7-2.6,2.1-4.3l-6-17.3C-99.6,2.6-100.9,1.7-102.3,1.7L-102.3,1.7z"/>
	<path id="Path_115" class="st1" d="M-119.2,24.1l-5.4,6.5c-0.4,0.5-1.1,0.5-1.5,0.1c0,0,0,0,0,0c-0.5-0.4-0.5-1.1-0.1-1.5l0,0
		l5.4-6.5c0.4-0.5,1.1-0.5,1.5-0.1c0,0,0,0,0,0C-118.9,22.9-118.8,23.6-119.2,24.1C-119.2,24.1-119.2,24.1-119.2,24.1L-119.2,24.1
		L-119.2,24.1z"/>
	<path id="Path_116" class="st1" d="M-116.1,20.7c-0.4,0-0.8,0-1.1-0.1l-14-3.6c-0.6-0.1-0.9-0.7-0.8-1.3c0.1-0.6,0.7-0.9,1.3-0.8
		l14,3.6c0.9,0.2,1.9-0.1,2.5-0.9l8.6-11.3c0.4-0.5,1-0.6,1.5-0.2c0,0,0,0,0,0c0.5,0.4,0.6,1,0.2,1.5l-8.6,11.3
		C-113.3,20.1-114.6,20.7-116.1,20.7z"/>
	<path id="Path_117" class="st1" d="M-99.3,22c-0.2,0.6-0.7,0.9-1.3,0.8c0,0,0,0,0,0l0,0l-8.1-2.2c-0.6-0.2-0.9-0.7-0.8-1.3
		c0.2-0.6,0.7-0.9,1.3-0.8l8.1,2.2C-99.5,20.9-99.2,21.5-99.3,22L-99.3,22z"/>
</g>
</svg>
