<svg xmlns="http://www.w3.org/2000/svg" xmlns:xlink="http://www.w3.org/1999/xlink" viewBox="0 0 133.99 94.08"><defs><style>.cls-1{fill:#d9dada;}.cls-1,.cls-2,.cls-3,.cls-4,.cls-5,.cls-6{fill-rule:evenodd;}.cls-2{fill:#005585;}.cls-3{fill:url(#GradientFill_1);}.cls-4{fill:url(#GradientFill_2);}.cls-5{fill:url(#GradientFill_2-2);}.cls-6{fill:url(#GradientFill_3);}</style><radialGradient id="GradientFill_1" cx="76.57" cy="53.32" r="50.49" gradientUnits="userSpaceOnUse"><stop offset="0" stop-color="#009ee3"/><stop offset="0.5" stop-color="#009ee3"/><stop offset="1" stop-color="#89ced6"/></radialGradient><linearGradient id="GradientFill_2" x1="124.32" y1="48.63" x2="96.6" y2="7.55" gradientUnits="userSpaceOnUse"><stop offset="0" stop-color="#005585"/><stop offset="1" stop-color="#009ee3"/></linearGradient><linearGradient id="GradientFill_2-2" x1="27.71" y1="41.39" x2="30.61" y2="26.43" xlink:href="#GradientFill_2"/><linearGradient id="GradientFill_3" x1="25.81" y1="11.68" x2="39.23" y2="12.38" gradientUnits="userSpaceOnUse"><stop offset="0" stop-color="#62c3d0"/><stop offset="1" stop-color="#009ee3"/></linearGradient></defs><g id="Layer_2" data-name="Layer 2"><g id="Layer_1-2" data-name="Layer 1"><path class="cls-1" d="M1.6,30.42s20.87-18.75,44-18.75h0s15.88-.59,15.88,11.1h0S62.69,31.68,39,44.86c-44.43,24.74-6.88,68.4,57.52,39.9,39.83-17.63,37.73-40.95,36.23-45.45S126,21.53,87.72,21.53h0a.87.87,0,0,0,.09,1.73c.06,0,35.67.67,35.52,20.55S87,86,59.13,85.58,28.68,70.36,28.53,65.41c-.64-21.25,35.32-25.8,35.92-44.78C64.83,8.93,49.6,7.66,45,7.81A59.48,59.48,0,0,0,.33,29.55h0s-.7.74-.07,1.22S1.6,30.42,1.6,30.42Z"/><path class="cls-2" d="M2.17,23.48S23,4.73,46.15,4.73h0s15.88-.6,15.88,11.1h0s1.21,8.91-22.44,22.08c-44.43,24.74-6.88,68.4,57.52,39.9C137,60.19,134.86,36.86,133.36,32.36s-6.8-17.77-45.07-17.77h0a.87.87,0,0,0,.09,1.73c.07,0,35.68.67,35.53,20.54S87.6,79,59.7,78.64,29.25,63.41,29.1,58.46C28.45,37.22,64.41,32.67,65,13.69,65.4,2,50.17.71,45.52.86A59.45,59.45,0,0,0,.9,22.61h0s-.7.75-.07,1.23S2.17,23.48,2.17,23.48Z"/><path class="cls-3" d="M35.75,39C-3.4,64,33.83,104.72,96.56,77,136.39,59.34,134.29,36,132.79,31.51c-.79-2.36-2.62-7.14-9.72-11.15a14.66,14.66,0,0,1,4.06,10.7c-.58,9.21-7.06,19.21-15.36,25.68-13,12-34.53,21.29-52.64,21.05-9.28-.13-15.75-1.86-20.26-4.28h0S24.3,67.61,24.3,57C24.3,47.37,34,40.26,35.75,39Z"/><path class="cls-4" d="M123.07,20.36c-6.43-3.63-17.17-6.62-35.35-6.62h0a.87.87,0,0,0,.09,1.73c.06,0,35.67.67,35.52,20.54,0,7-4.55,14.25-11.56,20.73,8.3-6.47,14.78-16.47,15.36-25.68A14.66,14.66,0,0,0,123.07,20.36Z"/><path class="cls-5" d="M1.6,22.63s20.87-18.75,44-18.75h0S61.48,3.28,61.48,15h0S62.69,23.89,39,37.06c-1.16.64-2.24,1.3-3.29,2C34,40.26,24.3,47.37,24.3,57c0,10.62,14.55,16.51,14.55,16.51h0c-9.07-4.88-10.24-12.59-10.34-15.9-.64-21.24,35.32-25.79,35.92-44.77C64.83,1.14,49.6-.14,45,0A59.46,59.46,0,0,0,.33,21.76h0s-.7.75-.07,1.22S1.6,22.63,1.6,22.63Z"/><path class="cls-6" d="M64.35,14.13c.05-.43.09-.86.1-1.29C64.83,1.14,49.6-.14,45,0A59.46,59.46,0,0,0,.33,21.76h0s-.7.75-.07,1.22C.26,23,13,8,36.74,3s26.47,9.3,26.47,9.3a11.77,11.77,0,0,1-1.51,1.59c.89,0,1.78.13,2.65.24ZM.26,23l.24.13A.94.94,0,0,1,.26,23Z"/></g></g></svg>