<?xml version="1.0" encoding="utf-8"?>
<!-- Generator: Adobe Illustrator 25.4.1, SVG Export Plug-In . SVG Version: 6.00 Build 0)  -->
<svg version="1.1" id="Layer_1" xmlns="http://www.w3.org/2000/svg" xmlns:xlink="http://www.w3.org/1999/xlink" x="0px" y="0px"
	 viewBox="0 0 62.5 60.2" style="enable-background:new 0 0 62.5 60.2;" xml:space="preserve">
<style type="text/css">
	.st0{fill:none;stroke:#FFFFFF;stroke-width:2.75;stroke-miterlimit:10;}
	.st1{fill:#FFFFFF;}
	.st2{fill:none;stroke:#F2D23C;stroke-width:2;stroke-miterlimit:10;}
	.st3{fill:#00A0E3;stroke:#F2D23C;stroke-width:1.9166;stroke-miterlimit:10;}
	.st4{fill:#00A0E3;stroke:#FFFFFF;stroke-width:1.5;stroke-miterlimit:10;}
</style>
<path class="st0" d="M39.7,58.8H15.8c-2.5,0-4.6-2.1-4.6-4.6V15.8c0-2.5,2.1-4.6,4.6-4.6h23.8c2.5,0,4.6,2.1,4.6,4.6v38.5
	C44.2,56.8,42.2,58.8,39.7,58.8z"/>
<circle class="st1" cx="27.8" cy="52.5" r="3.5"/>
<g>
	<path class="st2" d="M1,15C1,7.3,7.3,1,15,1"/>
	<path class="st2" d="M5,15C5,9.5,9.5,5,15,5"/>
</g>
<g>
	<path class="st3" d="M57.1,42.5H30.4c-2.4,0-4.4-2-4.4-4.4V24.4c0-2.4,2-4.4,4.4-4.4h26.8c2.4,0,4.4,2,4.4,4.4v13.8
		C61.5,40.5,59.5,42.5,57.1,42.5z"/>
	<line class="st3" x1="26" y1="25" x2="61" y2="25"/>
	<line class="st3" x1="26" y1="30" x2="62" y2="30"/>
	<path class="st4" d="M57,39h-7c-0.5,0-1-0.5-1-1v-3c0-0.5,0.5-1,1-1h7c0.5,0,1,0.5,1,1v3C58,38.5,57.5,39,57,39z"/>
</g>
</svg>
