<?xml version="1.0" encoding="utf-8"?>
<!-- Generator: Adobe Illustrator 25.3.1, SVG Export Plug-In . SVG Version: 6.00 Build 0)  -->
<svg version="1.1" id="Component_13_1" xmlns="http://www.w3.org/2000/svg" xmlns:xlink="http://www.w3.org/1999/xlink" x="0px"
	 y="0px" viewBox="0 0 52 70" style="enable-background:new 0 0 52 70;" xml:space="preserve">
<style type="text/css">
	.st0{fill:#F1D04C;}
	.st1{fill:#00A0E3;}
</style>
<path id="Path_106" class="st0" d="M40.3,28H11.6c-0.2,0-0.5,0.1-0.6,0.3c-0.2,0.2-0.2,0.4-0.2,0.6c0,0.5,0.5,0.9,0.9,0.8
	c0,0,0,0,0,0h28.6c0.2,0,0.5-0.1,0.7-0.3c0.2-0.2,0.3-0.4,0.3-0.6c0-0.2-0.1-0.5-0.3-0.6C40.8,28.1,40.6,28,40.3,28z"/>
<path id="Path_107" class="st0" d="M41,39c-0.2-0.2-0.4-0.3-0.6-0.3H11.6c-0.2,0-0.5,0.1-0.6,0.3c-0.2,0.2-0.2,0.4-0.2,0.6
	c0,0.5,0.5,0.9,0.9,0.9c0,0,0,0,0,0h28.6c0.2,0,0.5-0.1,0.7-0.3c0.2-0.2,0.3-0.4,0.3-0.6C41.2,39.4,41.2,39.2,41,39z"/>
<path id="Path_108" class="st0" d="M10.9,49.8c-0.2,0.2-0.2,0.4-0.2,0.6c0,0.2,0.1,0.5,0.3,0.6c0.2,0.2,0.4,0.2,0.7,0.2h28.6
	c0.2,0,0.5-0.1,0.7-0.3c0.2-0.2,0.3-0.4,0.3-0.6c0-0.5-0.4-0.9-0.9-0.9H11.6C11.3,49.5,11.1,49.6,10.9,49.8z"/>
<path id="Path_109" class="st1" d="M32.6,5.8l-0.1-0.6C31.8,2.2,29.1,0,26,0c-3.1,0-5.8,2.2-6.5,5.2l-0.1,0.6h-3.6
	c-0.5,0-0.9,0.4-0.9,0.9v3h-14C0.4,9.7,0,10.1,0,10.6v58.5C0,69.6,0.4,70,0.9,70h50.2c0.5,0,0.9-0.4,0.9-0.9V10.6
	c0-0.5-0.4-0.9-0.9-0.9h-14v-3c0-0.5-0.4-0.9-0.9-0.9H32.6z M21.5,4.8C22.2,3,24,1.8,26,1.8c2,0,3.8,1.2,4.5,3l0.4,1h-9.6L21.5,4.8z
	 M16.7,7.6h18.6v6.7H16.7L16.7,7.6z M50.2,68.2h-8.7l8.7-8.5V68.2z M40.2,66.9v-8.5h8.6L40.2,66.9z M37.1,15.2v-3.7h13.1v45.1H39.3
	c-0.5,0-0.9,0.4-0.9,0.9v10.7H1.8V11.5h13.1v3.7c0,0.5,0.4,0.9,0.9,0.9h20.4C36.7,16.1,37.1,15.7,37.1,15.2
	C37.1,15.2,37.1,15.2,37.1,15.2z"/>
</svg>
