<?xml version="1.0" encoding="utf-8"?>
<!-- Generator: Adobe Illustrator 25.4.1, SVG Export Plug-In . SVG Version: 6.00 Build 0)  -->
<svg version="1.1" id="Layer_1" xmlns="http://www.w3.org/2000/svg" xmlns:xlink="http://www.w3.org/1999/xlink" x="0px" y="0px"
	 viewBox="0 0 114 60" style="enable-background:new 0 0 114 60;" xml:space="preserve">
<style type="text/css">
	.st0{fill:#FFFFFF;}
	.st1{fill:#F1D04C;}
</style>
<g id="Group_485" transform="translate(299.641 -1.496)">
	<path id="Path_118" class="st0" d="M-280.4,52.7v0.7c0.1,4.5,3.8,8.1,8.3,8.1c4.5-0.1,8.2-3.6,8.3-8.1v-0.7h49.2v0.7
		c0.1,4.5,3.8,8.1,8.3,8.1s8.2-3.6,8.3-8.1v-0.7h5.9c3.5,0,6.4-2.6,6.4-5.7V33.4c0.3-2.7-2.3-5.6-5.3-6.2c-1.2-0.2-2.4-0.9-3.3-1.7
		l-5.4-7.5c-1.7-2.4-4.4-3.8-7.4-3.9H-220V2.8c0-0.7-0.6-1.2-1.3-1.3h-41.1c-0.7,0-1.2,0.6-1.3,1.3c0,0.7,0.6,1.2,1.3,1.3h39.9v46.2
		h-41.8l-0.2-0.4c-1.3-3-4.3-4.9-7.6-5c-3.3,0-6.3,1.9-7.6,5l-0.2,0.4h-10.3c-0.7,0-1.2,0.6-1.3,1.3c0,0.7,0.6,1.2,1.3,1.3
		L-280.4,52.7z M-200.2,53.7c-0.2,3.1-2.7,5.4-5.8,5.4c-3,0-5.6-2.4-5.8-5.4v-0.3c0-1.6,0.7-3.2,1.9-4.2c1-1,2.4-1.5,3.9-1.5
		s2.9,0.5,3.9,1.5c1.2,1.1,1.9,2.6,1.8,4.2v0.3H-200.2z M-219.8,16.8h12.9c2.1,0,4,1,5.3,2.6l5.4,7.5c1.2,1.5,3,2.5,4.9,2.9
		c1.8,0.4,3.2,1.9,3.4,3.8V48h-0.2c-0.5,1.5-2,2.6-3.6,2.5h-6.6l-0.2-0.4c-1.3-3-4.3-4.9-7.6-5c-3.3,0-6.2,1.8-7.6,4.8l-0.2,0.4
		h-6.1L-219.8,16.8z M-275.9,49.1c1-1,2.4-1.5,3.9-1.5s2.9,0.5,3.9,1.5c1.2,1.1,1.9,2.6,1.8,4.2v0.3c-0.2,3.1-2.7,5.4-5.8,5.4
		c-3,0-5.6-2.4-5.8-5.4v-0.3C-277.8,51.8-277.1,50.2-275.9,49.1L-275.9,49.1z"/>
	<path id="Path_119" class="st1" d="M-256.3,17.3h-22.2c-0.7,0-1.2,0.5-1.2,1.2s0.5,1.2,1.2,1.2h22.2c0.7,0,1.2-0.5,1.2-1.2
		C-255.2,17.9-255.7,17.3-256.3,17.3z"/>
	<path id="Path_120" class="st1" d="M-298.4,32.4c-0.7,0-1.2,0.5-1.2,1.2s0.5,1.2,1.2,1.2h17.6c0.7,0,1.2-0.5,1.2-1.2
		s-0.5-1.2-1.2-1.2H-298.4z"/>
	<path id="Path_121" class="st1" d="M-259.5,29c0,0.7,0.5,1.2,1.2,1.2h15.3c0.7,0,1.2-0.5,1.2-1.2s-0.5-1.2-1.2-1.2h-15.4h-0.1
		c-0.2,0-0.4,0.1-0.6,0.2C-259.4,28.2-259.5,28.6-259.5,29z"/>
</g>
</svg>
