<svg xmlns="http://www.w3.org/2000/svg" width="26" height="35" viewBox="0 0 26 35">
  <g id="Group_486" data-name="Group 486" transform="translate(-13.5 -1.8)">
    <path id="Path_122" data-name="Path 122" d="M27.715,29.146a3.151,3.151,0,0,0,2.2-.654,2.569,2.569,0,0,0,.71-2.033,2.733,2.733,0,0,0-.71-2.07,3.189,3.189,0,0,0-2.238-.69H25.3v7.552h1.492V29.146Zm-.923-3.994h.852a1.826,1.826,0,0,1,1.1.29,1.1,1.1,0,0,1,.355.944,1.526,1.526,0,0,1-.284.98,1.3,1.3,0,0,1-1.03.327h-.995Z" transform="translate(-7.609 -13.949)" fill="#00a0e3"/>
    <path id="Path_123" data-name="Path 123" d="M47.386,30.135a3.9,3.9,0,0,0,.923-2.8,3.819,3.819,0,0,0-.959-2.759,3.7,3.7,0,0,0-2.77-.98H42.2v7.552h2.309A3.6,3.6,0,0,0,47.386,30.135Zm-1.137-1.017a1.99,1.99,0,0,1-1.563.581h-.959V25.089h.852a2.287,2.287,0,0,1,1.7.617,2.516,2.516,0,0,1,.568,1.706A2.721,2.721,0,0,1,46.249,29.119Z" transform="translate(-18.506 -13.885)" fill="#00a0e3"/>
    <path id="Path_124" data-name="Path 124" d="M66.317,25.189V23.7H61.7v7.552h1.492V28.275H66.14V26.822H63.192V25.189Z" transform="translate(-31.08 -13.949)" fill="#00a0e3"/>
    <path id="Path_125" data-name="Path 125" d="M37.191,1.8H15.738A2.254,2.254,0,0,0,13.5,4.087V30.882a2.254,2.254,0,0,0,2.238,2.287h4.937L20,32.479l-.675-.69H15.773a.889.889,0,0,1-.888-.908V4.087a.889.889,0,0,1,.888-.908H37.262a.889.889,0,0,1,.888.908V30.882a.889.889,0,0,1-.888.908H34.208l-.675.69-.675.69h4.4A2.254,2.254,0,0,0,39.5,30.882V4.087A2.337,2.337,0,0,0,37.191,1.8Z" transform="translate(0 0)" fill="#00a0e3"/>
    <path id="Path_126" data-name="Path 126" d="M43.6,62.579l-4.653-.036V54.7H32.553v7.733L27.9,62.361l7.956,8.133Z" transform="translate(-9.285 -33.694)" fill="#00a0e3"/>
  </g>
</svg>
