<svg xmlns="http://www.w3.org/2000/svg" width="50" height="55" viewBox="0 0 50 55">
  <g id="Group_482" data-name="Group 482" transform="translate(-7 -2)">
    <rect id="Rectangle_236" data-name="Rectangle 236" width="2.174" height="10" transform="translate(11.348 47)" fill="#fff"/>
    <path id="Path_103" data-name="Path 103" d="M9,52a3,3,0,0,1,3-3H23a1,1,0,0,0,.453-.108l3.993-2.028a1.012,1.012,0,0,0,.314-.249l4.3-5.136,1.583,1.583-4.333,5.2-6.895,4.925A1,1,0,0,0,22,54v8h2V54.515l6.581-4.7a1,1,0,0,0,.188-.174L32,48.162l1.231,1.478a1,1,0,0,0,.188.174L40,54.515V62h2V54a1,1,0,0,0-.419-.814l-6.9-4.925L33.3,46.6l1.46-1.752,1.482,1.765a.98.98,0,0,0,.313.248l3.99,2.03A1,1,0,0,0,41,49H52a3,3,0,0,1,3,3V62h2V52a5.006,5.006,0,0,0-5-5H50.152a5.5,5.5,0,1,0-6.3,0H41.239l-3.594-1.829-1.676-2a.984.984,0,0,0-.262-.882l-3-3A1.033,1.033,0,0,0,31.956,39a1,1,0,0,0-.723.356l-4.875,5.816L22.761,47H20.152a5.5,5.5,0,1,0-6.3,0H12a5.006,5.006,0,0,0-5,5V62H9Zm34.5-9.5A3.5,3.5,0,1,1,47,46,3.5,3.5,0,0,1,43.5,42.5Zm-30,0A3.5,3.5,0,1,1,17,46,3.5,3.5,0,0,1,13.5,42.5Z" transform="translate(0 -5)" fill="#fff"/>
    <rect id="Rectangle_237" data-name="Rectangle 237" width="2.174" height="10" transform="translate(50.478 47)" fill="#fff"/>
    <path id="Path_104" data-name="Path 104" d="M17.161,21.378l-.895.514a2.509,2.509,0,0,0-1.185,1.567,2.554,2.554,0,0,0,.264,1.925l2.473,4.266a2.49,2.49,0,0,0,3.39.921l.9-.519a.655.655,0,0,1,.726.081,13.956,13.956,0,0,0,3.1,1.791.6.6,0,0,1,.4.51v1.029A2.522,2.522,0,0,0,28.833,36h4.943a2.521,2.521,0,0,0,2.5-2.537V32.434a.6.6,0,0,1,.4-.51,13.952,13.952,0,0,0,3.094-1.791.661.661,0,0,1,.726-.081l.9.519a2.49,2.49,0,0,0,3.39-.921l2.472-4.266a2.555,2.555,0,0,0,.265-1.925,2.511,2.511,0,0,0-1.186-1.567l-.893-.514a.5.5,0,0,1-.274-.476,13.778,13.778,0,0,0,0-3.8.5.5,0,0,1,.272-.477l.895-.514a2.509,2.509,0,0,0,1.185-1.567,2.554,2.554,0,0,0-.264-1.925L44.792,8.35a2.492,2.492,0,0,0-3.39-.921l-.9.519a.661.661,0,0,1-.726-.081,13.956,13.956,0,0,0-3.1-1.791.6.6,0,0,1-.4-.51V4.537A2.522,2.522,0,0,0,33.776,2H28.833a2.521,2.521,0,0,0-2.5,2.537V5.566a.6.6,0,0,1-.4.51,13.952,13.952,0,0,0-3.094,1.791.657.657,0,0,1-.726.081l-.9-.519a2.49,2.49,0,0,0-3.39.921l-2.472,4.266a2.555,2.555,0,0,0-.265,1.925,2.511,2.511,0,0,0,1.186,1.567l.893.514a.5.5,0,0,1,.274.476,13.778,13.778,0,0,0,0,3.8A.5.5,0,0,1,17.161,21.378Zm.926,1.751a2.53,2.53,0,0,0,1.247-2.513,11.619,11.619,0,0,1,0-3.232,2.53,2.53,0,0,0-1.247-2.513l-.893-.514a.537.537,0,0,1-.259-.333.477.477,0,0,1,.053-.374L19.46,9.383a.606.606,0,0,1,.821-.2l.9.519a2.514,2.514,0,0,0,2.787-.219,12.109,12.109,0,0,1,2.673-1.547,2.574,2.574,0,0,0,1.607-2.367V4.537A.562.562,0,0,1,28.833,4h4.943a.562.562,0,0,1,.583.537V5.566a2.575,2.575,0,0,0,1.606,2.367A12.116,12.116,0,0,1,38.64,9.48a2.514,2.514,0,0,0,2.787.219l.907-.519a.606.606,0,0,1,.821.2l2.473,4.267a.479.479,0,0,1,.052.373.536.536,0,0,1-.258.333l-.895.514A2.53,2.53,0,0,0,43.28,17.38a11.619,11.619,0,0,1,0,3.232,2.53,2.53,0,0,0,1.247,2.513l.893.514a.537.537,0,0,1,.259.333.477.477,0,0,1-.053.374l-2.472,4.267a.606.606,0,0,1-.821.2l-.9-.519a2.516,2.516,0,0,0-2.787.219A12.109,12.109,0,0,1,35.97,30.06a2.574,2.574,0,0,0-1.607,2.367v1.029a.562.562,0,0,1-.583.537H28.833a.562.562,0,0,1-.583-.537V32.434a2.575,2.575,0,0,0-1.606-2.367,12.115,12.115,0,0,1-2.674-1.547,2.592,2.592,0,0,0-1.574-.541,2.417,2.417,0,0,0-1.213.322l-.9.519a.606.606,0,0,1-.821-.2l-2.473-4.267a.479.479,0,0,1-.052-.373.536.536,0,0,1,.258-.333Z" transform="translate(0.696)" fill="#fff"/>
    <path id="Path_105" data-name="Path 105" d="M32.739,27.5c5.1,0,9.239-3.806,9.239-8.5s-4.137-8.5-9.239-8.5S23.5,14.306,23.5,19,27.639,27.494,32.739,27.5Zm0-15A6.8,6.8,0,0,1,39.8,19a6.8,6.8,0,0,1-7.065,6.5A6.8,6.8,0,0,1,25.674,19,6.808,6.808,0,0,1,32.739,12.5Z" transform="translate(-0.739)" fill="#fff"/>
  </g>
</svg>
