<svg xmlns="http://www.w3.org/2000/svg" width="26.2" height="26.204" viewBox="0 0 26.2 26.204"><defs><style>.a{fill:#fff;stroke:#fff;stroke-width:0.2px;}</style></defs><g transform="translate(-30.602 -111.664)"><path class="a" d="M56.257,111.764H39.463a.446.446,0,0,0-.445.448v3.249a.445.445,0,1,0,.89,0v-2.8H54.2l-6.52,2.972a.448.448,0,0,0-.262.408v17.169H39.908v-2.8a.445.445,0,1,0-.89,0v3.249a.446.446,0,0,0,.445.448h7.952v3.211a.445.445,0,0,0,.622.411l8.4-3.658a.448.448,0,0,0,.268-.411V112.212s0,0,0-.007,0-.015,0-.022,0-.015,0-.022,0-.015,0-.022a.19.19,0,0,0,0-.022.131.131,0,0,1-.005-.02c0-.008,0-.016-.006-.023a.141.141,0,0,1-.006-.018l-.01-.026a.082.082,0,0,1-.006-.013l-.015-.028a.068.068,0,0,1-.006-.01l-.017-.026-.01-.013-.018-.023-.011-.011-.02-.021-.011-.009-.023-.019-.014-.01-.022-.015-.015-.009-.026-.014-.011,0-.03-.012-.013,0-.029-.009-.015,0-.029-.006-.013,0-.032,0h-.022Zm-.445,1.142v20.457l-7.507,3.27V116.329Zm-20.465,5.351h.005Zm0,0a.444.444,0,0,0-.316.136l-4.2,4.224-.011.012-.009.01-.006.008-.023.029c-.008.012-.016.024-.023.037h0s0,0,0,0-.012.024-.018.036h0s0,0,0,0-.01.025-.014.038a.409.409,0,0,0-.012.042h0v0c0,.013,0,.026-.006.039h0a.193.193,0,0,0,0,.042s0,.007,0,.01v.035h0v.005a.286.286,0,0,0,.006.039.426.426,0,0,0,.01.043.406.406,0,0,0,.014.042h0v0c.005.013.012.026.018.039a.359.359,0,0,0,.021.037l.009.012.018.024.008.01.022.024h0l4.2,4.224a.446.446,0,1,0,.63-.633l-3.439-3.46h11.44a.448.448,0,0,0,0-.9H32.218l3.439-3.46a.448.448,0,0,0-.308-.769Z" transform="translate(0 0)"/></g></svg>