<svg xmlns="http://www.w3.org/2000/svg" width="28.206" height="22.2" viewBox="0 0 28.206 22.2">
  <path id="rect3372-9" d="M127.369-177.223a.465.465,0,0,1,.456.359l.894,4.3h5.109a.52.52,0,0,1,.1-.006.522.522,0,0,1,.064.006H146.2a.526.526,0,0,1,.077-.005.535.535,0,0,1,.067.005h5.514a.489.489,0,0,1,.405.206.4.4,0,0,1,.02.421l-4.812,8.7a.478.478,0,0,1-.37.235l-16.038,1.75.5,2.391h.04a1.982,1.982,0,0,1,1.942,1.385H143.58a1.981,1.981,0,0,1,1.942-1.385,1.924,1.924,0,0,1,2,1.818,1.924,1.924,0,0,1-2,1.818,1.981,1.981,0,0,1-1.942-1.385H133.545a1.982,1.982,0,0,1-1.942,1.385,1.923,1.923,0,0,1-2-1.818,1.806,1.806,0,0,1,1.038-1.591l-.6-2.909v0h0l-2.18-10.5-.894-4.3h-2.148a.456.456,0,0,1-.477-.433.456.456,0,0,1,.477-.433h2.46a.524.524,0,0,1,.1-.006Zm23.719,5.528h-4.5l-1.6,3.483h4.167Zm-5.531,0H134.485l.723,3.483h8.752Zm-12.042,0H128.9l.723,3.483h4.617Zm15.166,4.348H144.6l-1.808,3.945,3.948-.431Zm-5.117,0h-8.176l.965,4.648,5.349-.584Zm-9.146,0H129.8l1.089,5.244,4.515-.493Zm11.1,9.352a1,1,0,0,0-1.049.953,1,1,0,0,0,1.049.953,1,1,0,0,0,1.049-.953A1,1,0,0,0,145.522-157.994Zm-13.919,0a1,1,0,0,0-1.048.953,1,1,0,0,0,1.048.953,1,1,0,0,0,1.049-.953A1,1,0,0,0,131.6-157.994Z" transform="translate(-124.236 177.323)" fill="#fff" stroke="#fff" stroke-linecap="square" stroke-width="0.2"/>
</svg>
