<svg xmlns="http://www.w3.org/2000/svg" width="15" height="22" viewBox="0 0 15 22"><defs><style>.a{fill:#43c5ff;}</style></defs><g transform="translate(-79.968 0)"><path class="a" d="M93.926,3.767A7.393,7.393,0,0,0,87.635,0c-.112,0-.224,0-.336,0a7.393,7.393,0,0,0-6.29,3.766,7.716,7.716,0,0,0-.1,7.568L86.32,21.32l.007.013a1.309,1.309,0,0,0,2.281,0l.007-.013,5.409-9.985a7.716,7.716,0,0,0-.1-7.568Zm-6.458,6.2a3.094,3.094,0,1,1,3.068-3.094A3.084,3.084,0,0,1,87.468,9.968Z" transform="translate(0 0)"/></g></svg>